<svg width="1440" height="1024" viewBox="0 0 1440 1024" fill="none" xmlns="http://www.w3.org/2000/svg">
<rect width="1440" height="1024" fill="#F8F8F8"/>
<path d="M0 0H1072.5L1103.2 37.9667C1118.42 56.7948 1117.96 83.8246 1102.12 102.13L304 1024H0V0Z" fill="#333333"/>
<g filter="url(#filter0_d_0_823)">
<rect x="505" y="253.5" width="430" height="518" rx="12" fill="#FEFEFE"/>
<path d="M666.164 337.86C664.124 337.86 662.24 337.608 660.512 337.104C658.808 336.576 657.344 335.856 656.12 334.944L657.56 331.308C658.376 331.884 659.228 332.376 660.116 332.784C661.004 333.168 661.952 333.468 662.96 333.684C663.968 333.876 665.036 333.972 666.164 333.972C668.06 333.972 669.428 333.66 670.268 333.036C671.108 332.412 671.528 331.596 671.528 330.588C671.528 329.7 671.24 329.028 670.664 328.572C670.088 328.092 669.056 327.696 667.568 327.384L663.5 326.556C661.172 326.076 659.432 325.272 658.28 324.144C657.128 323.016 656.552 321.504 656.552 319.608C656.552 318.024 656.972 316.644 657.812 315.468C658.652 314.292 659.828 313.38 661.34 312.732C662.852 312.084 664.616 311.76 666.632 311.76C668.432 311.76 670.1 312.024 671.636 312.552C673.172 313.056 674.456 313.788 675.488 314.748L674.048 318.204C673.016 317.34 671.888 316.704 670.664 316.296C669.44 315.864 668.072 315.648 666.56 315.648C664.856 315.648 663.524 315.984 662.564 316.656C661.628 317.304 661.16 318.204 661.16 319.356C661.16 320.244 661.448 320.952 662.024 321.48C662.624 322.008 663.632 322.416 665.048 322.704L669.08 323.496C671.48 323.976 673.256 324.768 674.408 325.872C675.56 326.952 676.136 328.416 676.136 330.264C676.136 331.776 675.728 333.108 674.912 334.26C674.096 335.388 672.944 336.276 671.456 336.924C669.968 337.548 668.204 337.86 666.164 337.86ZM680.151 337.5V319.32H684.651V337.5H680.151ZM679.899 315.9V311.508H684.903V315.9H679.899ZM697.962 345.564C696.282 345.564 694.758 345.384 693.39 345.024C692.046 344.664 690.846 344.112 689.79 343.368L690.762 340.128C691.458 340.584 692.178 340.956 692.922 341.244C693.666 341.532 694.434 341.748 695.226 341.892C696.018 342.036 696.822 342.108 697.638 342.108C699.318 342.108 700.566 341.688 701.382 340.848C702.222 340.032 702.642 338.856 702.642 337.32V332.964H703.002C702.618 334.212 701.838 335.208 700.662 335.952C699.51 336.696 698.178 337.068 696.666 337.068C695.034 337.068 693.606 336.708 692.382 335.988C691.182 335.244 690.246 334.188 689.574 332.82C688.902 331.452 688.566 329.844 688.566 327.996C688.566 326.148 688.902 324.552 689.574 323.208C690.246 321.84 691.182 320.796 692.382 320.076C693.606 319.332 695.034 318.96 696.666 318.96C698.202 318.96 699.534 319.332 700.662 320.076C701.814 320.796 702.582 321.78 702.966 323.028L702.642 322.812L703.002 319.32H707.358C707.262 320.064 707.19 320.82 707.142 321.588C707.094 322.356 707.07 323.112 707.07 323.856V336.78C707.07 339.636 706.29 341.808 704.73 343.296C703.194 344.808 700.938 345.564 697.962 345.564ZM697.89 333.612C699.33 333.612 700.47 333.132 701.31 332.172C702.174 331.188 702.606 329.796 702.606 327.996C702.606 326.196 702.174 324.816 701.31 323.856C700.47 322.896 699.33 322.416 697.89 322.416C696.426 322.416 695.262 322.896 694.398 323.856C693.534 324.816 693.102 326.196 693.102 327.996C693.102 329.796 693.534 331.188 694.398 332.172C695.262 333.132 696.426 333.612 697.89 333.612ZM711.932 337.5V323.856C711.932 323.112 711.908 322.356 711.86 321.588C711.812 320.82 711.74 320.064 711.644 319.32H716L716.36 322.92H715.928C716.504 321.648 717.356 320.676 718.484 320.004C719.612 319.308 720.92 318.96 722.408 318.96C724.544 318.96 726.152 319.56 727.232 320.76C728.312 321.96 728.852 323.832 728.852 326.376V337.5H724.352V326.592C724.352 325.128 724.064 324.084 723.488 323.46C722.936 322.812 722.096 322.488 720.968 322.488C719.576 322.488 718.472 322.92 717.656 323.784C716.84 324.648 716.432 325.8 716.432 327.24V337.5H711.932ZM750.055 337.86C747.823 337.86 746.155 337.248 745.051 336.024C743.947 334.8 743.395 332.928 743.395 330.408V319.32H747.895V330.372C747.895 331.716 748.171 332.712 748.723 333.36C749.275 333.984 750.115 334.296 751.243 334.296C752.515 334.296 753.547 333.864 754.339 333C755.155 332.136 755.563 330.996 755.563 329.58V319.32H760.063V337.5H755.671V333.792H756.175C755.647 335.088 754.843 336.096 753.763 336.816C752.707 337.512 751.471 337.86 750.055 337.86ZM764.948 345.276V323.856C764.948 323.112 764.924 322.356 764.876 321.588C764.828 320.82 764.756 320.064 764.66 319.32H769.016L769.412 323.136H769.016C769.376 321.864 770.132 320.856 771.284 320.112C772.46 319.344 773.816 318.96 775.352 318.96C776.96 318.96 778.364 319.344 779.564 320.112C780.764 320.856 781.7 321.936 782.372 323.352C783.044 324.744 783.38 326.424 783.38 328.392C783.38 330.36 783.044 332.052 782.372 333.468C781.7 334.884 780.764 335.976 779.564 336.744C778.364 337.488 776.96 337.86 775.352 337.86C773.84 337.86 772.508 337.488 771.356 336.744C770.204 336 769.436 335.004 769.052 333.756H769.448V345.276H764.948ZM774.092 334.404C775.532 334.404 776.684 333.912 777.548 332.928C778.412 331.92 778.844 330.408 778.844 328.392C778.844 326.376 778.412 324.876 777.548 323.892C776.684 322.908 775.532 322.416 774.092 322.416C772.676 322.416 771.536 322.908 770.672 323.892C769.808 324.876 769.376 326.376 769.376 328.392C769.376 330.408 769.808 331.92 770.672 332.928C771.536 333.912 772.676 334.404 774.092 334.404Z" fill="#151515"/>
<path d="M538.138 396.626C536.785 396.626 535.777 396.285 535.114 395.604C534.461 394.913 534.134 393.901 534.134 392.566V386.63H535.45V392.524C535.45 393.504 535.665 394.241 536.094 394.736C536.523 395.231 537.205 395.478 538.138 395.478C539.034 395.478 539.706 395.231 540.154 394.736C540.611 394.241 540.84 393.504 540.84 392.524V386.63H542.128V392.566C542.128 393.901 541.792 394.913 541.12 395.604C540.448 396.285 539.454 396.626 538.138 396.626ZM546.712 396.626C546.142 396.626 545.61 396.551 545.116 396.402C544.63 396.253 544.229 396.038 543.912 395.758L544.318 394.876C544.663 395.137 545.041 395.338 545.452 395.478C545.872 395.609 546.301 395.674 546.74 395.674C547.272 395.674 547.673 395.576 547.944 395.38C548.224 395.184 548.364 394.923 548.364 394.596C548.364 394.335 548.275 394.125 548.098 393.966C547.92 393.807 547.64 393.691 547.258 393.616L545.928 393.35C545.33 393.21 544.878 392.986 544.57 392.678C544.271 392.361 544.122 391.955 544.122 391.46C544.122 391.049 544.234 390.685 544.458 390.368C544.682 390.041 544.999 389.789 545.41 389.612C545.83 389.425 546.32 389.332 546.88 389.332C547.393 389.332 547.869 389.407 548.308 389.556C548.756 389.705 549.124 389.925 549.414 390.214L548.994 391.068C548.704 390.816 548.378 390.625 548.014 390.494C547.659 390.354 547.295 390.284 546.922 390.284C546.38 390.284 545.979 390.391 545.718 390.606C545.456 390.811 545.326 391.082 545.326 391.418C545.326 391.67 545.405 391.88 545.564 392.048C545.722 392.207 545.979 392.328 546.334 392.412L547.664 392.678C548.289 392.809 548.76 393.023 549.078 393.322C549.395 393.621 549.554 394.017 549.554 394.512C549.554 394.951 549.432 395.329 549.19 395.646C548.956 395.963 548.625 396.206 548.196 396.374C547.776 396.542 547.281 396.626 546.712 396.626ZM554.497 396.626C553.377 396.626 552.49 396.304 551.837 395.66C551.193 395.016 550.871 394.129 550.871 393C550.871 392.253 551.011 391.609 551.291 391.068C551.58 390.517 551.977 390.093 552.481 389.794C552.985 389.486 553.573 389.332 554.245 389.332C554.889 389.332 555.435 389.472 555.883 389.752C556.331 390.023 556.671 390.41 556.905 390.914C557.138 391.418 557.255 392.015 557.255 392.706V393.126H551.865V392.37H556.387L556.149 392.552C556.149 391.824 555.985 391.259 555.659 390.858C555.341 390.457 554.87 390.256 554.245 390.256C553.563 390.256 553.036 390.494 552.663 390.97C552.289 391.437 552.103 392.076 552.103 392.888V393.014C552.103 393.873 552.313 394.521 552.733 394.96C553.162 395.399 553.755 395.618 554.511 395.618C554.931 395.618 555.323 395.557 555.687 395.436C556.051 395.315 556.401 395.114 556.737 394.834L557.157 395.716C556.839 396.005 556.443 396.229 555.967 396.388C555.5 396.547 555.01 396.626 554.497 396.626ZM558.905 396.5V391.18C558.905 390.9 558.896 390.615 558.877 390.326C558.868 390.027 558.845 389.738 558.807 389.458H560.039L560.193 391.222L559.983 391.236C560.077 390.807 560.235 390.452 560.459 390.172C560.693 389.883 560.968 389.673 561.285 389.542C561.612 389.402 561.948 389.332 562.293 389.332C562.443 389.332 562.569 389.337 562.671 389.346C562.774 389.355 562.877 389.379 562.979 389.416L562.951 390.55C562.811 390.494 562.681 390.461 562.559 390.452C562.447 390.433 562.307 390.424 562.139 390.424C561.729 390.424 561.374 390.517 561.075 390.704C560.786 390.891 560.562 391.138 560.403 391.446C560.254 391.754 560.179 392.085 560.179 392.44V396.5H558.905ZM564.101 396.5V391.124C564.101 390.853 564.092 390.578 564.073 390.298C564.054 390.018 564.026 389.738 563.989 389.458H565.221L565.361 390.97H565.193C565.408 390.438 565.739 390.032 566.187 389.752C566.635 389.472 567.158 389.332 567.755 389.332C568.586 389.332 569.211 389.561 569.631 390.018C570.051 390.466 570.261 391.166 570.261 392.118V396.5H568.987V392.188C568.987 391.544 568.861 391.082 568.609 390.802C568.357 390.513 567.965 390.368 567.433 390.368C566.798 390.368 566.294 390.559 565.921 390.942C565.557 391.325 565.375 391.843 565.375 392.496V396.5H564.101ZM575.033 396.626C574.417 396.626 573.876 396.481 573.409 396.192C572.943 395.903 572.579 395.483 572.317 394.932C572.056 394.381 571.925 393.728 571.925 392.972C571.925 392.216 572.056 391.567 572.317 391.026C572.579 390.475 572.943 390.055 573.409 389.766C573.876 389.477 574.417 389.332 575.033 389.332C575.659 389.332 576.2 389.491 576.657 389.808C577.124 390.116 577.432 390.541 577.581 391.082H577.413L577.567 389.458H578.799C578.771 389.738 578.743 390.018 578.715 390.298C578.697 390.578 578.687 390.853 578.687 391.124V396.5H577.413V394.89H577.567C577.418 395.422 577.11 395.847 576.643 396.164C576.186 396.472 575.649 396.626 575.033 396.626ZM575.327 395.618C575.962 395.618 576.471 395.394 576.853 394.946C577.236 394.498 577.427 393.84 577.427 392.972C577.427 392.104 577.236 391.451 576.853 391.012C576.471 390.573 575.962 390.354 575.327 390.354C574.693 390.354 574.179 390.573 573.787 391.012C573.405 391.451 573.213 392.104 573.213 392.972C573.213 393.84 573.405 394.498 573.787 394.946C574.17 395.394 574.683 395.618 575.327 395.618ZM580.822 396.5V391.124C580.822 390.853 580.812 390.578 580.794 390.298C580.775 390.018 580.747 389.738 580.71 389.458H581.942L582.082 390.97H581.914C582.1 390.447 582.399 390.046 582.81 389.766C583.22 389.477 583.71 389.332 584.28 389.332C584.858 389.332 585.334 389.472 585.708 389.752C586.081 390.023 586.333 390.452 586.464 391.04H586.254C586.431 390.517 586.744 390.102 587.192 389.794C587.64 389.486 588.162 389.332 588.76 389.332C589.534 389.332 590.118 389.561 590.51 390.018C590.902 390.466 591.098 391.166 591.098 392.118V396.5H589.824V392.188C589.824 391.544 589.712 391.082 589.488 390.802C589.264 390.513 588.909 390.368 588.424 390.368C587.854 390.368 587.406 390.564 587.08 390.956C586.753 391.339 586.59 391.861 586.59 392.524V396.5H585.316V392.188C585.316 391.544 585.204 391.082 584.98 390.802C584.765 390.513 584.41 390.368 583.916 390.368C583.346 390.368 582.898 390.564 582.572 390.956C582.254 391.339 582.096 391.861 582.096 392.524V396.5H580.822ZM596.387 396.626C595.267 396.626 594.381 396.304 593.727 395.66C593.083 395.016 592.761 394.129 592.761 393C592.761 392.253 592.901 391.609 593.181 391.068C593.471 390.517 593.867 390.093 594.371 389.794C594.875 389.486 595.463 389.332 596.135 389.332C596.779 389.332 597.325 389.472 597.773 389.752C598.221 390.023 598.562 390.41 598.795 390.914C599.029 391.418 599.145 392.015 599.145 392.706V393.126H593.755V392.37H598.277L598.039 392.552C598.039 391.824 597.876 391.259 597.549 390.858C597.232 390.457 596.761 390.256 596.135 390.256C595.454 390.256 594.927 390.494 594.553 390.97C594.18 391.437 593.993 392.076 593.993 392.888V393.014C593.993 393.873 594.203 394.521 594.623 394.96C595.053 395.399 595.645 395.618 596.401 395.618C596.821 395.618 597.213 395.557 597.577 395.436C597.941 395.315 598.291 395.114 598.627 394.834L599.047 395.716C598.73 396.005 598.333 396.229 597.857 396.388C597.391 396.547 596.901 396.626 596.387 396.626Z" fill="#151515"/>
<g filter="url(#filter1_d_0_823)">
<rect x="533" y="403.5" width="374" height="47" rx="6" fill="#FEFEFE" shape-rendering="crispEdges"/>
<rect x="533.5" y="404" width="373" height="46" rx="5.5" stroke="#EBEBEB" shape-rendering="crispEdges"/>
<path d="M549.208 437.02C549.059 437.02 548.872 436.999 548.648 436.956C548.424 436.924 548.237 436.881 548.088 436.828V435.74C548.216 435.783 548.365 435.82 548.536 435.852C548.707 435.895 548.867 435.916 549.016 435.916C549.464 435.916 549.795 435.772 550.008 435.484C550.232 435.207 550.344 434.748 550.344 434.108V425.468H551.64V434.236C551.64 435.153 551.437 435.847 551.032 436.316C550.637 436.785 550.029 437.02 549.208 437.02ZM550.2 423.644V422.188H551.784V423.644H550.2ZM557.373 433.644C556.605 433.644 555.933 433.479 555.357 433.148C554.791 432.807 554.354 432.327 554.045 431.708C553.735 431.079 553.581 430.337 553.581 429.484C553.581 428.62 553.735 427.879 554.045 427.26C554.354 426.641 554.791 426.167 555.357 425.836C555.933 425.495 556.605 425.324 557.373 425.324C558.151 425.324 558.823 425.495 559.389 425.836C559.965 426.167 560.407 426.641 560.717 427.26C561.037 427.879 561.197 428.62 561.197 429.484C561.197 430.337 561.037 431.079 560.717 431.708C560.407 432.327 559.965 432.807 559.389 433.148C558.823 433.479 558.151 433.644 557.373 433.644ZM557.373 432.588C558.141 432.588 558.749 432.327 559.197 431.804C559.645 431.271 559.869 430.497 559.869 429.484C559.869 428.46 559.639 427.687 559.181 427.164C558.733 426.631 558.13 426.364 557.373 426.364C556.615 426.364 556.013 426.631 555.565 427.164C555.117 427.687 554.893 428.46 554.893 429.484C554.893 430.497 555.117 431.271 555.565 431.804C556.013 432.327 556.615 432.588 557.373 432.588ZM563.217 433.5V421.724H564.513V427.244H564.305C564.529 426.615 564.902 426.14 565.425 425.82C565.958 425.489 566.572 425.324 567.265 425.324C568.225 425.324 568.94 425.585 569.409 426.108C569.878 426.62 570.113 427.399 570.113 428.444V433.5H568.817V428.524C568.817 427.777 568.668 427.233 568.369 426.892C568.081 426.551 567.612 426.38 566.961 426.38C566.214 426.38 565.617 426.609 565.169 427.068C564.732 427.527 564.513 428.129 564.513 428.876V433.5H563.217ZM572.592 433.5V427.324C572.592 427.025 572.576 426.721 572.544 426.412C572.523 426.092 572.496 425.777 572.464 425.468H573.712L573.872 427.228H573.68C573.915 426.609 574.288 426.14 574.8 425.82C575.323 425.489 575.925 425.324 576.608 425.324C577.557 425.324 578.272 425.58 578.752 426.092C579.243 426.593 579.488 427.388 579.488 428.476V433.5H578.192V428.556C578.192 427.799 578.037 427.249 577.728 426.908C577.429 426.556 576.96 426.38 576.32 426.38C575.573 426.38 574.981 426.609 574.544 427.068C574.107 427.527 573.888 428.14 573.888 428.908V433.5H572.592ZM589.179 433.644C588.475 433.644 587.856 433.479 587.323 433.148C586.79 432.807 586.374 432.327 586.075 431.708C585.787 431.089 585.643 430.348 585.643 429.484C585.643 428.609 585.787 427.863 586.075 427.244C586.374 426.625 586.79 426.151 587.323 425.82C587.856 425.489 588.475 425.324 589.179 425.324C589.904 425.324 590.528 425.505 591.051 425.868C591.584 426.231 591.942 426.721 592.123 427.34H591.931V421.724H593.227V433.5H591.947V431.58H592.123C591.952 432.22 591.6 432.727 591.067 433.1C590.534 433.463 589.904 433.644 589.179 433.644ZM589.451 432.588C590.208 432.588 590.816 432.327 591.275 431.804C591.734 431.271 591.963 430.497 591.963 429.484C591.963 428.46 591.734 427.687 591.275 427.164C590.816 426.631 590.208 426.364 589.451 426.364C588.694 426.364 588.086 426.631 587.627 427.164C587.179 427.687 586.955 428.46 586.955 429.484C586.955 430.497 587.179 431.271 587.627 431.804C588.086 432.327 588.694 432.588 589.451 432.588ZM599.029 433.644C598.261 433.644 597.589 433.479 597.013 433.148C596.447 432.807 596.01 432.327 595.701 431.708C595.391 431.079 595.237 430.337 595.237 429.484C595.237 428.62 595.391 427.879 595.701 427.26C596.01 426.641 596.447 426.167 597.013 425.836C597.589 425.495 598.261 425.324 599.029 425.324C599.807 425.324 600.479 425.495 601.045 425.836C601.621 426.167 602.063 426.641 602.373 427.26C602.693 427.879 602.853 428.62 602.853 429.484C602.853 430.337 602.693 431.079 602.373 431.708C602.063 432.327 601.621 432.807 601.045 433.148C600.479 433.479 599.807 433.644 599.029 433.644ZM599.029 432.588C599.797 432.588 600.405 432.327 600.853 431.804C601.301 431.271 601.525 430.497 601.525 429.484C601.525 428.46 601.295 427.687 600.837 427.164C600.389 426.631 599.786 426.364 599.029 426.364C598.271 426.364 597.669 426.631 597.221 427.164C596.773 427.687 596.549 428.46 596.549 429.484C596.549 430.497 596.773 431.271 597.221 431.804C597.669 432.327 598.271 432.588 599.029 432.588ZM608.441 433.644C607.183 433.644 606.191 433.281 605.465 432.556C604.74 431.82 604.377 430.801 604.377 429.5C604.377 428.657 604.537 427.927 604.857 427.308C605.177 426.679 605.625 426.193 606.201 425.852C606.777 425.5 607.439 425.324 608.185 425.324C608.921 425.324 609.54 425.479 610.041 425.788C610.543 426.097 610.927 426.54 611.193 427.116C611.46 427.681 611.593 428.353 611.593 429.132V429.612H605.369V428.796H610.745L610.473 429.004C610.473 428.151 610.281 427.484 609.897 427.004C609.513 426.524 608.943 426.284 608.185 426.284C607.385 426.284 606.761 426.567 606.313 427.132C605.865 427.687 605.641 428.439 605.641 429.388V429.532C605.641 430.535 605.887 431.297 606.377 431.82C606.879 432.332 607.577 432.588 608.473 432.588C608.953 432.588 609.401 432.519 609.817 432.38C610.244 432.231 610.649 431.991 611.033 431.66L611.481 432.572C611.129 432.913 610.681 433.18 610.137 433.372C609.604 433.553 609.039 433.644 608.441 433.644Z" fill="#151515"/>
</g>
<path d="M534.204 480.5V470.63H538.292C539.347 470.63 540.154 470.882 540.714 471.386C541.274 471.89 541.554 472.585 541.554 473.472C541.554 474.359 541.274 475.059 540.714 475.572C540.154 476.076 539.347 476.328 538.292 476.328H535.506V480.5H534.204ZM535.506 475.264H538.166C538.857 475.264 539.379 475.11 539.734 474.802C540.089 474.485 540.266 474.041 540.266 473.472C540.266 472.903 540.089 472.464 539.734 472.156C539.379 471.848 538.857 471.694 538.166 471.694H535.506V475.264ZM545.584 480.626C544.968 480.626 544.427 480.481 543.96 480.192C543.493 479.903 543.129 479.483 542.868 478.932C542.607 478.381 542.476 477.728 542.476 476.972C542.476 476.216 542.607 475.567 542.868 475.026C543.129 474.475 543.493 474.055 543.96 473.766C544.427 473.477 544.968 473.332 545.584 473.332C546.209 473.332 546.751 473.491 547.208 473.808C547.675 474.116 547.983 474.541 548.132 475.082H547.964L548.118 473.458H549.35C549.322 473.738 549.294 474.018 549.266 474.298C549.247 474.578 549.238 474.853 549.238 475.124V480.5H547.964V478.89H548.118C547.969 479.422 547.661 479.847 547.194 480.164C546.737 480.472 546.2 480.626 545.584 480.626ZM545.878 479.618C546.513 479.618 547.021 479.394 547.404 478.946C547.787 478.498 547.978 477.84 547.978 476.972C547.978 476.104 547.787 475.451 547.404 475.012C547.021 474.573 546.513 474.354 545.878 474.354C545.243 474.354 544.73 474.573 544.338 475.012C543.955 475.451 543.764 476.104 543.764 476.972C543.764 477.84 543.955 478.498 544.338 478.946C544.721 479.394 545.234 479.618 545.878 479.618ZM553.753 480.626C553.183 480.626 552.651 480.551 552.157 480.402C551.671 480.253 551.27 480.038 550.953 479.758L551.359 478.876C551.704 479.137 552.082 479.338 552.493 479.478C552.913 479.609 553.342 479.674 553.781 479.674C554.313 479.674 554.714 479.576 554.985 479.38C555.265 479.184 555.405 478.923 555.405 478.596C555.405 478.335 555.316 478.125 555.139 477.966C554.961 477.807 554.681 477.691 554.299 477.616L552.969 477.35C552.371 477.21 551.919 476.986 551.611 476.678C551.312 476.361 551.163 475.955 551.163 475.46C551.163 475.049 551.275 474.685 551.499 474.368C551.723 474.041 552.04 473.789 552.451 473.612C552.871 473.425 553.361 473.332 553.921 473.332C554.434 473.332 554.91 473.407 555.349 473.556C555.797 473.705 556.165 473.925 556.455 474.214L556.035 475.068C555.745 474.816 555.419 474.625 555.055 474.494C554.7 474.354 554.336 474.284 553.963 474.284C553.421 474.284 553.02 474.391 552.759 474.606C552.497 474.811 552.367 475.082 552.367 475.418C552.367 475.67 552.446 475.88 552.605 476.048C552.763 476.207 553.02 476.328 553.375 476.412L554.705 476.678C555.33 476.809 555.801 477.023 556.119 477.322C556.436 477.621 556.595 478.017 556.595 478.512C556.595 478.951 556.473 479.329 556.231 479.646C555.997 479.963 555.666 480.206 555.237 480.374C554.817 480.542 554.322 480.626 553.753 480.626ZM560.712 480.626C560.142 480.626 559.61 480.551 559.116 480.402C558.63 480.253 558.229 480.038 557.912 479.758L558.318 478.876C558.663 479.137 559.041 479.338 559.452 479.478C559.872 479.609 560.301 479.674 560.74 479.674C561.272 479.674 561.673 479.576 561.944 479.38C562.224 479.184 562.364 478.923 562.364 478.596C562.364 478.335 562.275 478.125 562.098 477.966C561.92 477.807 561.64 477.691 561.258 477.616L559.928 477.35C559.33 477.21 558.878 476.986 558.57 476.678C558.271 476.361 558.122 475.955 558.122 475.46C558.122 475.049 558.234 474.685 558.458 474.368C558.682 474.041 558.999 473.789 559.41 473.612C559.83 473.425 560.32 473.332 560.88 473.332C561.393 473.332 561.869 473.407 562.308 473.556C562.756 473.705 563.124 473.925 563.414 474.214L562.994 475.068C562.704 474.816 562.378 474.625 562.014 474.494C561.659 474.354 561.295 474.284 560.922 474.284C560.38 474.284 559.979 474.391 559.718 474.606C559.456 474.811 559.326 475.082 559.326 475.418C559.326 475.67 559.405 475.88 559.564 476.048C559.722 476.207 559.979 476.328 560.334 476.412L561.664 476.678C562.289 476.809 562.76 477.023 563.078 477.322C563.395 477.621 563.554 478.017 563.554 478.512C563.554 478.951 563.432 479.329 563.19 479.646C562.956 479.963 562.625 480.206 562.196 480.374C561.776 480.542 561.281 480.626 560.712 480.626ZM567.058 480.5L564.426 473.458H565.756L567.884 479.492H567.52L569.704 473.458H570.74L572.91 479.492H572.56L574.702 473.458H575.976L573.33 480.5H572.126L569.886 474.368H570.502L568.276 480.5H567.058ZM580.221 480.626C579.531 480.626 578.933 480.481 578.429 480.192C577.925 479.893 577.533 479.473 577.253 478.932C576.973 478.381 576.833 477.728 576.833 476.972C576.833 476.225 576.973 475.581 577.253 475.04C577.533 474.489 577.925 474.069 578.429 473.78C578.933 473.481 579.531 473.332 580.221 473.332C580.912 473.332 581.509 473.481 582.013 473.78C582.527 474.069 582.919 474.489 583.189 475.04C583.469 475.581 583.609 476.225 583.609 476.972C583.609 477.728 583.469 478.381 583.189 478.932C582.919 479.473 582.527 479.893 582.013 480.192C581.509 480.481 580.912 480.626 580.221 480.626ZM580.221 479.618C580.856 479.618 581.365 479.394 581.747 478.946C582.13 478.498 582.321 477.84 582.321 476.972C582.321 476.104 582.13 475.451 581.747 475.012C581.365 474.573 580.856 474.354 580.221 474.354C579.577 474.354 579.064 474.573 578.681 475.012C578.308 475.451 578.121 476.104 578.121 476.972C578.121 477.84 578.308 478.498 578.681 478.946C579.064 479.394 579.577 479.618 580.221 479.618ZM585.306 480.5V475.18C585.306 474.9 585.297 474.615 585.278 474.326C585.269 474.027 585.245 473.738 585.208 473.458H586.44L586.594 475.222L586.384 475.236C586.477 474.807 586.636 474.452 586.86 474.172C587.093 473.883 587.369 473.673 587.686 473.542C588.013 473.402 588.349 473.332 588.694 473.332C588.843 473.332 588.969 473.337 589.072 473.346C589.175 473.355 589.277 473.379 589.38 473.416L589.352 474.55C589.212 474.494 589.081 474.461 588.96 474.452C588.848 474.433 588.708 474.424 588.54 474.424C588.129 474.424 587.775 474.517 587.476 474.704C587.187 474.891 586.963 475.138 586.804 475.446C586.655 475.754 586.58 476.085 586.58 476.44V480.5H585.306ZM593.094 480.626C592.478 480.626 591.936 480.481 591.47 480.192C591.003 479.903 590.639 479.483 590.378 478.932C590.116 478.381 589.986 477.728 589.986 476.972C589.986 476.216 590.116 475.567 590.378 475.026C590.639 474.475 591.003 474.055 591.47 473.766C591.936 473.477 592.478 473.332 593.094 473.332C593.71 473.332 594.246 473.486 594.704 473.794C595.17 474.102 595.483 474.527 595.642 475.068H595.474V470.196H596.748V480.5H595.488V478.862H595.642C595.492 479.413 595.184 479.847 594.718 480.164C594.26 480.472 593.719 480.626 593.094 480.626ZM593.388 479.618C594.022 479.618 594.531 479.394 594.914 478.946C595.306 478.498 595.502 477.84 595.502 476.972C595.502 476.104 595.306 475.451 594.914 475.012C594.531 474.573 594.022 474.354 593.388 474.354C592.753 474.354 592.24 474.573 591.848 475.012C591.465 475.451 591.274 476.104 591.274 476.972C591.274 477.84 591.465 478.498 591.848 478.946C592.24 479.394 592.753 479.618 593.388 479.618Z" fill="#FF4D4F"/>
<rect x="533.5" y="488" width="373" height="46" rx="5.5" fill="#FEFEFE"/>
<rect x="533.5" y="488" width="373" height="46" rx="5.5" stroke="#FF4D4F"/>
<path opacity="0.28" d="M550.408 517.5V506.22H557.608V507.308H551.704V511.228H557.256V512.332H551.704V516.396H557.608V517.5H550.408ZM559.67 517.5V511.324C559.67 511.025 559.654 510.721 559.622 510.412C559.601 510.092 559.574 509.777 559.542 509.468H560.79L560.95 511.228H560.758C560.993 510.609 561.366 510.14 561.878 509.82C562.401 509.489 563.004 509.324 563.686 509.324C564.636 509.324 565.35 509.58 565.83 510.092C566.321 510.593 566.566 511.388 566.566 512.476V517.5H565.27V512.556C565.27 511.799 565.116 511.249 564.806 510.908C564.508 510.556 564.038 510.38 563.398 510.38C562.652 510.38 562.06 510.609 561.622 511.068C561.185 511.527 560.966 512.14 560.966 512.908V517.5H559.67ZM571.893 517.644C571.104 517.644 570.501 517.42 570.085 516.972C569.669 516.513 569.461 515.825 569.461 514.908V510.476H567.893V509.468H569.461V507.276L570.757 506.908V509.468H573.061V510.476H570.757V514.764C570.757 515.404 570.864 515.863 571.077 516.14C571.301 516.407 571.632 516.54 572.069 516.54C572.272 516.54 572.453 516.524 572.613 516.492C572.773 516.449 572.917 516.401 573.045 516.348V517.436C572.896 517.5 572.715 517.548 572.501 517.58C572.299 517.623 572.096 517.644 571.893 517.644ZM578.129 517.644C576.87 517.644 575.878 517.281 575.153 516.556C574.428 515.82 574.065 514.801 574.065 513.5C574.065 512.657 574.225 511.927 574.545 511.308C574.865 510.679 575.313 510.193 575.889 509.852C576.465 509.5 577.126 509.324 577.873 509.324C578.609 509.324 579.228 509.479 579.729 509.788C580.23 510.097 580.614 510.54 580.881 511.116C581.148 511.681 581.281 512.353 581.281 513.132V513.612H575.057V512.796H580.433L580.161 513.004C580.161 512.151 579.969 511.484 579.585 511.004C579.201 510.524 578.63 510.284 577.873 510.284C577.073 510.284 576.449 510.567 576.001 511.132C575.553 511.687 575.329 512.439 575.329 513.388V513.532C575.329 514.535 575.574 515.297 576.065 515.82C576.566 516.332 577.265 516.588 578.161 516.588C578.641 516.588 579.089 516.519 579.505 516.38C579.932 516.231 580.337 515.991 580.721 515.66L581.169 516.572C580.817 516.913 580.369 517.18 579.825 517.372C579.292 517.553 578.726 517.644 578.129 517.644ZM583.232 517.5V511.404C583.232 511.084 583.221 510.759 583.2 510.428C583.189 510.097 583.168 509.777 583.136 509.468H584.384L584.544 511.42L584.32 511.436C584.427 510.956 584.613 510.561 584.88 510.252C585.147 509.943 585.461 509.713 585.824 509.564C586.187 509.404 586.565 509.324 586.96 509.324C587.12 509.324 587.259 509.329 587.376 509.34C587.504 509.351 587.621 509.377 587.728 509.42L587.712 510.572C587.552 510.519 587.403 510.487 587.264 510.476C587.136 510.455 586.987 510.444 586.816 510.444C586.347 510.444 585.936 510.556 585.584 510.78C585.243 511.004 584.981 511.292 584.8 511.644C584.629 511.996 584.544 512.369 584.544 512.764V517.5H583.232ZM592.928 521.132L592.624 520.06C593.126 519.943 593.542 519.804 593.872 519.644C594.214 519.495 594.496 519.292 594.72 519.036C594.944 518.78 595.136 518.46 595.296 518.076L595.712 517.132L595.68 517.676L592.176 509.468H593.584L596.48 516.524H596.064L598.928 509.468H600.288L596.576 518.172C596.363 518.684 596.128 519.111 595.872 519.452C595.616 519.804 595.339 520.087 595.04 520.3C594.752 520.524 594.432 520.7 594.08 520.828C593.728 520.956 593.344 521.057 592.928 521.132ZM604.935 517.644C604.167 517.644 603.495 517.479 602.919 517.148C602.354 516.807 601.916 516.327 601.607 515.708C601.298 515.079 601.143 514.337 601.143 513.484C601.143 512.62 601.298 511.879 601.607 511.26C601.916 510.641 602.354 510.167 602.919 509.836C603.495 509.495 604.167 509.324 604.935 509.324C605.714 509.324 606.386 509.495 606.951 509.836C607.527 510.167 607.97 510.641 608.279 511.26C608.599 511.879 608.759 512.62 608.759 513.484C608.759 514.337 608.599 515.079 608.279 515.708C607.97 516.327 607.527 516.807 606.951 517.148C606.386 517.479 605.714 517.644 604.935 517.644ZM604.935 516.588C605.703 516.588 606.311 516.327 606.759 515.804C607.207 515.271 607.431 514.497 607.431 513.484C607.431 512.46 607.202 511.687 606.743 511.164C606.295 510.631 605.692 510.364 604.935 510.364C604.178 510.364 603.575 510.631 603.127 511.164C602.679 511.687 602.455 512.46 602.455 513.484C602.455 514.497 602.679 515.271 603.127 515.804C603.575 516.327 604.178 516.588 604.935 516.588ZM613.612 517.644C612.662 517.644 611.942 517.383 611.452 516.86C610.972 516.337 610.732 515.537 610.732 514.46V509.468H612.028V514.428C612.028 515.164 612.177 515.708 612.476 516.06C612.774 516.401 613.238 516.572 613.868 516.572C614.572 516.572 615.137 516.343 615.564 515.884C615.99 515.425 616.204 514.812 616.204 514.044V509.468H617.5V517.5H616.236V515.692H616.444C616.22 516.311 615.857 516.791 615.356 517.132C614.865 517.473 614.284 517.644 613.612 517.644ZM619.982 517.5V511.404C619.982 511.084 619.971 510.759 619.95 510.428C619.939 510.097 619.918 509.777 619.886 509.468H621.134L621.294 511.42L621.07 511.436C621.177 510.956 621.363 510.561 621.63 510.252C621.897 509.943 622.211 509.713 622.574 509.564C622.937 509.404 623.315 509.324 623.71 509.324C623.87 509.324 624.009 509.329 624.126 509.34C624.254 509.351 624.371 509.377 624.478 509.42L624.462 510.572C624.302 510.519 624.153 510.487 624.014 510.476C623.886 510.455 623.737 510.444 623.566 510.444C623.097 510.444 622.686 510.556 622.334 510.78C621.993 511.004 621.731 511.292 621.55 511.644C621.379 511.996 621.294 512.369 621.294 512.764V517.5H619.982ZM629.998 520.956V511.324C629.998 511.025 629.982 510.721 629.95 510.412C629.929 510.092 629.902 509.777 629.87 509.468H631.118L631.294 511.372H631.102C631.273 510.743 631.62 510.247 632.142 509.884C632.665 509.511 633.289 509.324 634.014 509.324C634.74 509.324 635.364 509.489 635.886 509.82C636.42 510.151 636.836 510.625 637.134 511.244C637.433 511.863 637.582 512.609 637.582 513.484C637.582 514.348 637.433 515.089 637.134 515.708C636.846 516.327 636.436 516.807 635.902 517.148C635.369 517.479 634.74 517.644 634.014 517.644C633.3 517.644 632.681 517.463 632.158 517.1C631.636 516.737 631.289 516.241 631.118 515.612H631.294V520.956H629.998ZM633.758 516.588C634.526 516.588 635.134 516.327 635.582 515.804C636.041 515.271 636.27 514.497 636.27 513.484C636.27 512.46 636.041 511.687 635.582 511.164C635.134 510.631 634.526 510.364 633.758 510.364C633.001 510.364 632.393 510.631 631.934 511.164C631.486 511.687 631.262 512.46 631.262 513.484C631.262 514.497 631.486 515.271 631.934 515.804C632.393 516.327 633.001 516.588 633.758 516.588ZM642.648 517.644C641.933 517.644 641.309 517.479 640.776 517.148C640.243 516.807 639.827 516.327 639.528 515.708C639.24 515.089 639.096 514.348 639.096 513.484C639.096 512.609 639.24 511.863 639.528 511.244C639.827 510.625 640.243 510.151 640.776 509.82C641.309 509.489 641.933 509.324 642.648 509.324C643.373 509.324 643.997 509.511 644.52 509.884C645.053 510.247 645.405 510.743 645.576 511.372H645.384L645.56 509.468H646.808C646.776 509.777 646.744 510.092 646.712 510.412C646.691 510.721 646.68 511.025 646.68 511.324V517.5H645.384V515.612H645.56C645.389 516.241 645.037 516.737 644.504 517.1C643.971 517.463 643.352 517.644 642.648 517.644ZM642.904 516.588C643.672 516.588 644.28 516.327 644.728 515.804C645.176 515.271 645.4 514.497 645.4 513.484C645.4 512.46 645.176 511.687 644.728 511.164C644.28 510.631 643.672 510.364 642.904 510.364C642.147 510.364 641.539 510.631 641.08 511.164C640.632 511.687 640.408 512.46 640.408 513.484C640.408 514.497 640.632 515.271 641.08 515.804C641.539 516.327 642.147 516.588 642.904 516.588ZM651.858 517.644C651.218 517.644 650.621 517.559 650.066 517.388C649.511 517.207 649.053 516.956 648.69 516.636L649.138 515.724C649.533 516.033 649.959 516.263 650.418 516.412C650.887 516.561 651.373 516.636 651.874 516.636C652.514 516.636 652.994 516.524 653.314 516.3C653.645 516.065 653.81 515.745 653.81 515.34C653.81 515.031 653.703 514.785 653.49 514.604C653.287 514.412 652.951 514.263 652.482 514.156L650.994 513.852C650.311 513.703 649.799 513.452 649.458 513.1C649.117 512.737 648.946 512.279 648.946 511.724C648.946 511.255 649.069 510.844 649.314 510.492C649.559 510.129 649.917 509.847 650.386 509.644C650.855 509.431 651.405 509.324 652.034 509.324C652.621 509.324 653.159 509.415 653.65 509.596C654.151 509.767 654.567 510.017 654.898 510.348L654.434 511.244C654.114 510.935 653.746 510.705 653.33 510.556C652.925 510.396 652.503 510.316 652.066 510.316C651.437 510.316 650.962 510.444 650.642 510.7C650.333 510.945 650.178 511.271 650.178 511.676C650.178 511.985 650.274 512.241 650.466 512.444C650.669 512.636 650.978 512.78 651.394 512.876L652.882 513.18C653.607 513.34 654.146 513.591 654.498 513.932C654.861 514.263 655.042 514.711 655.042 515.276C655.042 515.756 654.909 516.177 654.642 516.54C654.375 516.892 654.002 517.164 653.522 517.356C653.053 517.548 652.498 517.644 651.858 517.644ZM659.795 517.644C659.155 517.644 658.558 517.559 658.003 517.388C657.449 517.207 656.99 516.956 656.627 516.636L657.075 515.724C657.47 516.033 657.897 516.263 658.355 516.412C658.825 516.561 659.31 516.636 659.811 516.636C660.451 516.636 660.931 516.524 661.251 516.3C661.582 516.065 661.747 515.745 661.747 515.34C661.747 515.031 661.641 514.785 661.427 514.604C661.225 514.412 660.889 514.263 660.419 514.156L658.931 513.852C658.249 513.703 657.737 513.452 657.395 513.1C657.054 512.737 656.883 512.279 656.883 511.724C656.883 511.255 657.006 510.844 657.251 510.492C657.497 510.129 657.854 509.847 658.323 509.644C658.793 509.431 659.342 509.324 659.971 509.324C660.558 509.324 661.097 509.415 661.587 509.596C662.089 509.767 662.505 510.017 662.835 510.348L662.371 511.244C662.051 510.935 661.683 510.705 661.267 510.556C660.862 510.396 660.441 510.316 660.003 510.316C659.374 510.316 658.899 510.444 658.579 510.7C658.27 510.945 658.115 511.271 658.115 511.676C658.115 511.985 658.211 512.241 658.403 512.444C658.606 512.636 658.915 512.78 659.331 512.876L660.819 513.18C661.545 513.34 662.083 513.591 662.435 513.932C662.798 514.263 662.979 514.711 662.979 515.276C662.979 515.756 662.846 516.177 662.579 516.54C662.313 516.892 661.939 517.164 661.459 517.356C660.99 517.548 660.435 517.644 659.795 517.644ZM667.049 517.5L664.073 509.468H665.449L667.929 516.54H667.513L670.073 509.468H671.193L673.705 516.54H673.305L675.801 509.468H677.113L674.121 517.5H672.873L670.281 510.316H670.921L668.313 517.5H667.049ZM681.998 517.644C681.23 517.644 680.558 517.479 679.982 517.148C679.416 516.807 678.979 516.327 678.67 515.708C678.36 515.079 678.206 514.337 678.206 513.484C678.206 512.62 678.36 511.879 678.67 511.26C678.979 510.641 679.416 510.167 679.982 509.836C680.558 509.495 681.23 509.324 681.998 509.324C682.776 509.324 683.448 509.495 684.014 509.836C684.59 510.167 685.032 510.641 685.342 511.26C685.662 511.879 685.822 512.62 685.822 513.484C685.822 514.337 685.662 515.079 685.342 515.708C685.032 516.327 684.59 516.807 684.014 517.148C683.448 517.479 682.776 517.644 681.998 517.644ZM681.998 516.588C682.766 516.588 683.374 516.327 683.822 515.804C684.27 515.271 684.494 514.497 684.494 513.484C684.494 512.46 684.264 511.687 683.806 511.164C683.358 510.631 682.755 510.364 681.998 510.364C681.24 510.364 680.638 510.631 680.19 511.164C679.742 511.687 679.518 512.46 679.518 513.484C679.518 514.497 679.742 515.271 680.19 515.804C680.638 516.327 681.24 516.588 681.998 516.588ZM687.81 517.5V511.404C687.81 511.084 687.799 510.759 687.778 510.428C687.767 510.097 687.746 509.777 687.714 509.468H688.962L689.122 511.42L688.898 511.436C689.005 510.956 689.191 510.561 689.458 510.252C689.725 509.943 690.039 509.713 690.402 509.564C690.765 509.404 691.143 509.324 691.538 509.324C691.698 509.324 691.837 509.329 691.954 509.34C692.082 509.351 692.199 509.377 692.306 509.42L692.29 510.572C692.13 510.519 691.981 510.487 691.842 510.476C691.714 510.455 691.565 510.444 691.394 510.444C690.925 510.444 690.514 510.556 690.162 510.78C689.821 511.004 689.559 511.292 689.378 511.644C689.207 511.996 689.122 512.369 689.122 512.764V517.5H687.81ZM696.601 517.644C695.897 517.644 695.278 517.479 694.745 517.148C694.212 516.807 693.796 516.327 693.497 515.708C693.209 515.089 693.065 514.348 693.065 513.484C693.065 512.609 693.209 511.863 693.497 511.244C693.796 510.625 694.212 510.151 694.745 509.82C695.278 509.489 695.897 509.324 696.601 509.324C697.326 509.324 697.95 509.505 698.473 509.868C699.006 510.231 699.364 510.721 699.545 511.34H699.353V505.724H700.649V517.5H699.369V515.58H699.545C699.374 516.22 699.022 516.727 698.489 517.1C697.956 517.463 697.326 517.644 696.601 517.644ZM696.873 516.588C697.63 516.588 698.238 516.327 698.697 515.804C699.156 515.271 699.385 514.497 699.385 513.484C699.385 512.46 699.156 511.687 698.697 511.164C698.238 510.631 697.63 510.364 696.873 510.364C696.116 510.364 695.508 510.631 695.049 511.164C694.601 511.687 694.377 512.46 694.377 513.484C694.377 514.497 694.601 515.271 695.049 515.804C695.508 516.327 696.116 516.588 696.873 516.588Z" fill="#151515"/>
<g clip-path="url(#clip0_0_823)">
<path d="M883.5 508.5L878.5 513.5M878.5 508.5L883.5 513.5M889.333 511C889.333 515.602 885.602 519.333 881 519.333C876.398 519.333 872.667 515.602 872.667 511C872.667 506.398 876.398 502.667 881 502.667C885.602 502.667 889.333 506.398 889.333 511Z" stroke="#FF4D4F" stroke-width="1.6" stroke-linecap="round" stroke-linejoin="round"/>
</g>
<path d="M538.558 564.626C537.569 564.626 536.719 564.421 536.01 564.01C535.31 563.599 534.773 563.016 534.4 562.26C534.027 561.495 533.84 560.594 533.84 559.558C533.84 558.522 534.027 557.626 534.4 556.87C534.773 556.114 535.31 555.531 536.01 555.12C536.719 554.709 537.569 554.504 538.558 554.504C539.267 554.504 539.897 554.611 540.448 554.826C540.999 555.031 541.479 555.335 541.89 555.736L541.414 556.786C540.966 556.394 540.523 556.114 540.084 555.946C539.655 555.769 539.155 555.68 538.586 555.68C537.494 555.68 536.659 556.016 536.08 556.688C535.501 557.36 535.212 558.317 535.212 559.558C535.212 560.799 535.501 561.761 536.08 562.442C536.659 563.114 537.494 563.45 538.586 563.45C539.155 563.45 539.655 563.366 540.084 563.198C540.523 563.021 540.966 562.736 541.414 562.344L541.89 563.38C541.479 563.781 540.994 564.089 540.434 564.304C539.883 564.519 539.258 564.626 538.558 564.626ZM546.124 564.626C545.433 564.626 544.836 564.481 544.332 564.192C543.828 563.893 543.436 563.473 543.156 562.932C542.876 562.381 542.736 561.728 542.736 560.972C542.736 560.225 542.876 559.581 543.156 559.04C543.436 558.489 543.828 558.069 544.332 557.78C544.836 557.481 545.433 557.332 546.124 557.332C546.814 557.332 547.412 557.481 547.916 557.78C548.429 558.069 548.821 558.489 549.092 559.04C549.372 559.581 549.512 560.225 549.512 560.972C549.512 561.728 549.372 562.381 549.092 562.932C548.821 563.473 548.429 563.893 547.916 564.192C547.412 564.481 546.814 564.626 546.124 564.626ZM546.124 563.618C546.758 563.618 547.267 563.394 547.65 562.946C548.032 562.498 548.224 561.84 548.224 560.972C548.224 560.104 548.032 559.451 547.65 559.012C547.267 558.573 546.758 558.354 546.124 558.354C545.48 558.354 544.966 558.573 544.584 559.012C544.21 559.451 544.024 560.104 544.024 560.972C544.024 561.84 544.21 562.498 544.584 562.946C544.966 563.394 545.48 563.618 546.124 563.618ZM551.222 564.5V559.124C551.222 558.853 551.213 558.578 551.194 558.298C551.176 558.018 551.148 557.738 551.11 557.458H552.342L552.482 558.97H552.314C552.529 558.438 552.86 558.032 553.308 557.752C553.756 557.472 554.279 557.332 554.876 557.332C555.707 557.332 556.332 557.561 556.752 558.018C557.172 558.466 557.382 559.166 557.382 560.118V564.5H556.108V560.188C556.108 559.544 555.982 559.082 555.73 558.802C555.478 558.513 555.086 558.368 554.554 558.368C553.92 558.368 553.416 558.559 553.042 558.942C552.678 559.325 552.496 559.843 552.496 560.496V564.5H551.222ZM559.858 564.5V558.438H558.486V557.458H560.208L559.858 557.78V556.646C559.858 555.825 560.064 555.204 560.474 554.784C560.885 554.355 561.482 554.14 562.266 554.14C562.453 554.14 562.649 554.154 562.854 554.182C563.069 554.21 563.246 554.257 563.386 554.322V555.358C563.274 555.311 563.134 555.274 562.966 555.246C562.798 555.218 562.635 555.204 562.476 555.204C562.196 555.204 561.954 555.26 561.748 555.372C561.543 555.484 561.389 555.652 561.286 555.876C561.184 556.091 561.132 556.375 561.132 556.73V557.724L560.936 557.458H563.078V558.438H561.132V564.5H559.858ZM564.293 564.5V557.458H565.567V564.5H564.293ZM564.181 555.918V554.546H565.693V555.918H564.181ZM567.683 564.5V559.18C567.683 558.9 567.673 558.615 567.655 558.326C567.645 558.027 567.622 557.738 567.585 557.458H568.817L568.971 559.222L568.761 559.236C568.854 558.807 569.013 558.452 569.237 558.172C569.47 557.883 569.745 557.673 570.063 557.542C570.389 557.402 570.725 557.332 571.071 557.332C571.22 557.332 571.346 557.337 571.449 557.346C571.551 557.355 571.654 557.379 571.757 557.416L571.729 558.55C571.589 558.494 571.458 558.461 571.337 558.452C571.225 558.433 571.085 558.424 570.917 558.424C570.506 558.424 570.151 558.517 569.853 558.704C569.563 558.891 569.339 559.138 569.181 559.446C569.031 559.754 568.957 560.085 568.957 560.44V564.5H567.683ZM572.878 564.5V559.124C572.878 558.853 572.869 558.578 572.85 558.298C572.832 558.018 572.804 557.738 572.766 557.458H573.998L574.138 558.97H573.97C574.157 558.447 574.456 558.046 574.866 557.766C575.277 557.477 575.767 557.332 576.336 557.332C576.915 557.332 577.391 557.472 577.764 557.752C578.138 558.023 578.39 558.452 578.52 559.04H578.31C578.488 558.517 578.8 558.102 579.248 557.794C579.696 557.486 580.219 557.332 580.816 557.332C581.591 557.332 582.174 557.561 582.566 558.018C582.958 558.466 583.154 559.166 583.154 560.118V564.5H581.88V560.188C581.88 559.544 581.768 559.082 581.544 558.802C581.32 558.513 580.966 558.368 580.48 558.368C579.911 558.368 579.463 558.564 579.136 558.956C578.81 559.339 578.646 559.861 578.646 560.524V564.5H577.372V560.188C577.372 559.544 577.26 559.082 577.036 558.802C576.822 558.513 576.467 558.368 575.972 558.368C575.403 558.368 574.955 558.564 574.628 558.956C574.311 559.339 574.152 559.861 574.152 560.524V564.5H572.878ZM588.929 567.524V559.124C588.929 558.853 588.92 558.578 588.901 558.298C588.883 558.018 588.855 557.738 588.817 557.458H590.049L590.203 559.082H590.049C590.189 558.541 590.488 558.116 590.945 557.808C591.403 557.491 591.949 557.332 592.583 557.332C593.209 557.332 593.755 557.477 594.221 557.766C594.688 558.055 595.047 558.475 595.299 559.026C595.561 559.567 595.691 560.216 595.691 560.972C595.691 561.728 595.561 562.381 595.299 562.932C595.047 563.483 594.688 563.903 594.221 564.192C593.755 564.481 593.209 564.626 592.583 564.626C591.958 564.626 591.417 564.472 590.959 564.164C590.511 563.847 590.208 563.422 590.049 562.89H590.203V567.524H588.929ZM592.289 563.618C592.933 563.618 593.447 563.394 593.829 562.946C594.212 562.498 594.403 561.84 594.403 560.972C594.403 560.104 594.212 559.451 593.829 559.012C593.447 558.573 592.933 558.354 592.289 558.354C591.645 558.354 591.132 558.573 590.749 559.012C590.376 559.451 590.189 560.104 590.189 560.972C590.189 561.84 590.376 562.498 590.749 562.946C591.132 563.394 591.645 563.618 592.289 563.618ZM600.094 564.626C599.478 564.626 598.936 564.481 598.47 564.192C598.003 563.903 597.639 563.483 597.378 562.932C597.116 562.381 596.986 561.728 596.986 560.972C596.986 560.216 597.116 559.567 597.378 559.026C597.639 558.475 598.003 558.055 598.47 557.766C598.936 557.477 599.478 557.332 600.094 557.332C600.719 557.332 601.26 557.491 601.718 557.808C602.184 558.116 602.492 558.541 602.642 559.082H602.474L602.628 557.458H603.86C603.832 557.738 603.804 558.018 603.776 558.298C603.757 558.578 603.748 558.853 603.748 559.124V564.5H602.474V562.89H602.628C602.478 563.422 602.17 563.847 601.704 564.164C601.246 564.472 600.71 564.626 600.094 564.626ZM600.388 563.618C601.022 563.618 601.531 563.394 601.914 562.946C602.296 562.498 602.488 561.84 602.488 560.972C602.488 560.104 602.296 559.451 601.914 559.012C601.531 558.573 601.022 558.354 600.388 558.354C599.753 558.354 599.24 558.573 598.848 559.012C598.465 559.451 598.274 560.104 598.274 560.972C598.274 561.84 598.465 562.498 598.848 562.946C599.23 563.394 599.744 563.618 600.388 563.618ZM608.262 564.626C607.693 564.626 607.161 564.551 606.666 564.402C606.181 564.253 605.78 564.038 605.462 563.758L605.868 562.876C606.214 563.137 606.592 563.338 607.002 563.478C607.422 563.609 607.852 563.674 608.29 563.674C608.822 563.674 609.224 563.576 609.494 563.38C609.774 563.184 609.914 562.923 609.914 562.596C609.914 562.335 609.826 562.125 609.648 561.966C609.471 561.807 609.191 561.691 608.808 561.616L607.478 561.35C606.881 561.21 606.428 560.986 606.12 560.678C605.822 560.361 605.672 559.955 605.672 559.46C605.672 559.049 605.784 558.685 606.008 558.368C606.232 558.041 606.55 557.789 606.96 557.612C607.38 557.425 607.87 557.332 608.43 557.332C608.944 557.332 609.42 557.407 609.858 557.556C610.306 557.705 610.675 557.925 610.964 558.214L610.544 559.068C610.255 558.816 609.928 558.625 609.564 558.494C609.21 558.354 608.846 558.284 608.472 558.284C607.931 558.284 607.53 558.391 607.268 558.606C607.007 558.811 606.876 559.082 606.876 559.418C606.876 559.67 606.956 559.88 607.114 560.048C607.273 560.207 607.53 560.328 607.884 560.412L609.214 560.678C609.84 560.809 610.311 561.023 610.628 561.322C610.946 561.621 611.104 562.017 611.104 562.512C611.104 562.951 610.983 563.329 610.74 563.646C610.507 563.963 610.176 564.206 609.746 564.374C609.326 564.542 608.832 564.626 608.262 564.626ZM615.221 564.626C614.652 564.626 614.12 564.551 613.625 564.402C613.14 564.253 612.739 564.038 612.421 563.758L612.827 562.876C613.173 563.137 613.551 563.338 613.961 563.478C614.381 563.609 614.811 563.674 615.249 563.674C615.781 563.674 616.183 563.576 616.453 563.38C616.733 563.184 616.873 562.923 616.873 562.596C616.873 562.335 616.785 562.125 616.607 561.966C616.43 561.807 616.15 561.691 615.767 561.616L614.437 561.35C613.84 561.21 613.387 560.986 613.079 560.678C612.781 560.361 612.631 559.955 612.631 559.46C612.631 559.049 612.743 558.685 612.967 558.368C613.191 558.041 613.509 557.789 613.919 557.612C614.339 557.425 614.829 557.332 615.389 557.332C615.903 557.332 616.379 557.407 616.817 557.556C617.265 557.705 617.634 557.925 617.923 558.214L617.503 559.068C617.214 558.816 616.887 558.625 616.523 558.494C616.169 558.354 615.805 558.284 615.431 558.284C614.89 558.284 614.489 558.391 614.227 558.606C613.966 558.811 613.835 559.082 613.835 559.418C613.835 559.67 613.915 559.88 614.073 560.048C614.232 560.207 614.489 560.328 614.843 560.412L616.173 560.678C616.799 560.809 617.27 561.023 617.587 561.322C617.905 561.621 618.063 562.017 618.063 562.512C618.063 562.951 617.942 563.329 617.699 563.646C617.466 563.963 617.135 564.206 616.705 564.374C616.285 564.542 615.791 564.626 615.221 564.626ZM621.568 564.5L618.936 557.458H620.266L622.394 563.492H622.03L624.214 557.458H625.25L627.42 563.492H627.07L629.212 557.458H630.486L627.84 564.5H626.636L624.396 558.368H625.012L622.786 564.5H621.568ZM634.731 564.626C634.041 564.626 633.443 564.481 632.939 564.192C632.435 563.893 632.043 563.473 631.763 562.932C631.483 562.381 631.343 561.728 631.343 560.972C631.343 560.225 631.483 559.581 631.763 559.04C632.043 558.489 632.435 558.069 632.939 557.78C633.443 557.481 634.041 557.332 634.731 557.332C635.422 557.332 636.019 557.481 636.523 557.78C637.037 558.069 637.429 558.489 637.699 559.04C637.979 559.581 638.119 560.225 638.119 560.972C638.119 561.728 637.979 562.381 637.699 562.932C637.429 563.473 637.037 563.893 636.523 564.192C636.019 564.481 635.422 564.626 634.731 564.626ZM634.731 563.618C635.366 563.618 635.875 563.394 636.257 562.946C636.64 562.498 636.831 561.84 636.831 560.972C636.831 560.104 636.64 559.451 636.257 559.012C635.875 558.573 635.366 558.354 634.731 558.354C634.087 558.354 633.574 558.573 633.191 559.012C632.818 559.451 632.631 560.104 632.631 560.972C632.631 561.84 632.818 562.498 633.191 562.946C633.574 563.394 634.087 563.618 634.731 563.618ZM639.816 564.5V559.18C639.816 558.9 639.806 558.615 639.788 558.326C639.778 558.027 639.755 557.738 639.718 557.458H640.95L641.104 559.222L640.894 559.236C640.987 558.807 641.146 558.452 641.37 558.172C641.603 557.883 641.878 557.673 642.196 557.542C642.522 557.402 642.858 557.332 643.204 557.332C643.353 557.332 643.479 557.337 643.582 557.346C643.684 557.355 643.787 557.379 643.89 557.416L643.862 558.55C643.722 558.494 643.591 558.461 643.47 558.452C643.358 558.433 643.218 558.424 643.05 558.424C642.639 558.424 642.284 558.517 641.986 558.704C641.696 558.891 641.472 559.138 641.314 559.446C641.164 559.754 641.09 560.085 641.09 560.44V564.5H639.816ZM647.604 564.626C646.988 564.626 646.446 564.481 645.98 564.192C645.513 563.903 645.149 563.483 644.888 562.932C644.626 562.381 644.496 561.728 644.496 560.972C644.496 560.216 644.626 559.567 644.888 559.026C645.149 558.475 645.513 558.055 645.98 557.766C646.446 557.477 646.988 557.332 647.604 557.332C648.22 557.332 648.756 557.486 649.214 557.794C649.68 558.102 649.993 558.527 650.152 559.068H649.984V554.196H651.258V564.5H649.998V562.862H650.152C650.002 563.413 649.694 563.847 649.228 564.164C648.77 564.472 648.229 564.626 647.604 564.626ZM647.898 563.618C648.532 563.618 649.041 563.394 649.424 562.946C649.816 562.498 650.012 561.84 650.012 560.972C650.012 560.104 649.816 559.451 649.424 559.012C649.041 558.573 648.532 558.354 647.898 558.354C647.263 558.354 646.75 558.573 646.358 559.012C645.975 559.451 645.784 560.104 645.784 560.972C645.784 561.84 645.975 562.498 646.358 562.946C646.75 563.394 647.263 563.618 647.898 563.618Z" fill="#151515"/>
<rect x="533.5" y="572" width="373" height="46" rx="5.5" fill="#FEFEFE"/>
<rect x="533.5" y="572" width="373" height="46" rx="5.5" stroke="#EBEBEB"/>
<path opacity="0.28" d="M550.408 601.5V590.22H557.608V591.308H551.704V595.228H557.256V596.332H551.704V600.396H557.608V601.5H550.408ZM559.67 601.5V595.324C559.67 595.025 559.654 594.721 559.622 594.412C559.601 594.092 559.574 593.777 559.542 593.468H560.79L560.95 595.228H560.758C560.993 594.609 561.366 594.14 561.878 593.82C562.401 593.489 563.004 593.324 563.686 593.324C564.636 593.324 565.35 593.58 565.83 594.092C566.321 594.593 566.566 595.388 566.566 596.476V601.5H565.27V596.556C565.27 595.799 565.116 595.249 564.806 594.908C564.508 594.556 564.038 594.38 563.398 594.38C562.652 594.38 562.06 594.609 561.622 595.068C561.185 595.527 560.966 596.14 560.966 596.908V601.5H559.67ZM571.893 601.644C571.104 601.644 570.501 601.42 570.085 600.972C569.669 600.513 569.461 599.825 569.461 598.908V594.476H567.893V593.468H569.461V591.276L570.757 590.908V593.468H573.061V594.476H570.757V598.764C570.757 599.404 570.864 599.863 571.077 600.14C571.301 600.407 571.632 600.54 572.069 600.54C572.272 600.54 572.453 600.524 572.613 600.492C572.773 600.449 572.917 600.401 573.045 600.348V601.436C572.896 601.5 572.715 601.548 572.501 601.58C572.299 601.623 572.096 601.644 571.893 601.644ZM578.129 601.644C576.87 601.644 575.878 601.281 575.153 600.556C574.428 599.82 574.065 598.801 574.065 597.5C574.065 596.657 574.225 595.927 574.545 595.308C574.865 594.679 575.313 594.193 575.889 593.852C576.465 593.5 577.126 593.324 577.873 593.324C578.609 593.324 579.228 593.479 579.729 593.788C580.23 594.097 580.614 594.54 580.881 595.116C581.148 595.681 581.281 596.353 581.281 597.132V597.612H575.057V596.796H580.433L580.161 597.004C580.161 596.151 579.969 595.484 579.585 595.004C579.201 594.524 578.63 594.284 577.873 594.284C577.073 594.284 576.449 594.567 576.001 595.132C575.553 595.687 575.329 596.439 575.329 597.388V597.532C575.329 598.535 575.574 599.297 576.065 599.82C576.566 600.332 577.265 600.588 578.161 600.588C578.641 600.588 579.089 600.519 579.505 600.38C579.932 600.231 580.337 599.991 580.721 599.66L581.169 600.572C580.817 600.913 580.369 601.18 579.825 601.372C579.292 601.553 578.726 601.644 578.129 601.644ZM583.232 601.5V595.404C583.232 595.084 583.221 594.759 583.2 594.428C583.189 594.097 583.168 593.777 583.136 593.468H584.384L584.544 595.42L584.32 595.436C584.427 594.956 584.613 594.561 584.88 594.252C585.147 593.943 585.461 593.713 585.824 593.564C586.187 593.404 586.565 593.324 586.96 593.324C587.12 593.324 587.259 593.329 587.376 593.34C587.504 593.351 587.621 593.377 587.728 593.42L587.712 594.572C587.552 594.519 587.403 594.487 587.264 594.476C587.136 594.455 586.987 594.444 586.816 594.444C586.347 594.444 585.936 594.556 585.584 594.78C585.243 595.004 584.981 595.292 584.8 595.644C584.629 595.996 584.544 596.369 584.544 596.764V601.5H583.232ZM592.928 605.132L592.624 604.06C593.126 603.943 593.542 603.804 593.872 603.644C594.214 603.495 594.496 603.292 594.72 603.036C594.944 602.78 595.136 602.46 595.296 602.076L595.712 601.132L595.68 601.676L592.176 593.468H593.584L596.48 600.524H596.064L598.928 593.468H600.288L596.576 602.172C596.363 602.684 596.128 603.111 595.872 603.452C595.616 603.804 595.339 604.087 595.04 604.3C594.752 604.524 594.432 604.7 594.08 604.828C593.728 604.956 593.344 605.057 592.928 605.132ZM604.935 601.644C604.167 601.644 603.495 601.479 602.919 601.148C602.354 600.807 601.916 600.327 601.607 599.708C601.298 599.079 601.143 598.337 601.143 597.484C601.143 596.62 601.298 595.879 601.607 595.26C601.916 594.641 602.354 594.167 602.919 593.836C603.495 593.495 604.167 593.324 604.935 593.324C605.714 593.324 606.386 593.495 606.951 593.836C607.527 594.167 607.97 594.641 608.279 595.26C608.599 595.879 608.759 596.62 608.759 597.484C608.759 598.337 608.599 599.079 608.279 599.708C607.97 600.327 607.527 600.807 606.951 601.148C606.386 601.479 605.714 601.644 604.935 601.644ZM604.935 600.588C605.703 600.588 606.311 600.327 606.759 599.804C607.207 599.271 607.431 598.497 607.431 597.484C607.431 596.46 607.202 595.687 606.743 595.164C606.295 594.631 605.692 594.364 604.935 594.364C604.178 594.364 603.575 594.631 603.127 595.164C602.679 595.687 602.455 596.46 602.455 597.484C602.455 598.497 602.679 599.271 603.127 599.804C603.575 600.327 604.178 600.588 604.935 600.588ZM613.612 601.644C612.662 601.644 611.942 601.383 611.452 600.86C610.972 600.337 610.732 599.537 610.732 598.46V593.468H612.028V598.428C612.028 599.164 612.177 599.708 612.476 600.06C612.774 600.401 613.238 600.572 613.868 600.572C614.572 600.572 615.137 600.343 615.564 599.884C615.99 599.425 616.204 598.812 616.204 598.044V593.468H617.5V601.5H616.236V599.692H616.444C616.22 600.311 615.857 600.791 615.356 601.132C614.865 601.473 614.284 601.644 613.612 601.644ZM619.982 601.5V595.404C619.982 595.084 619.971 594.759 619.95 594.428C619.939 594.097 619.918 593.777 619.886 593.468H621.134L621.294 595.42L621.07 595.436C621.177 594.956 621.363 594.561 621.63 594.252C621.897 593.943 622.211 593.713 622.574 593.564C622.937 593.404 623.315 593.324 623.71 593.324C623.87 593.324 624.009 593.329 624.126 593.34C624.254 593.351 624.371 593.377 624.478 593.42L624.462 594.572C624.302 594.519 624.153 594.487 624.014 594.476C623.886 594.455 623.737 594.444 623.566 594.444C623.097 594.444 622.686 594.556 622.334 594.78C621.993 595.004 621.731 595.292 621.55 595.644C621.379 595.996 621.294 596.369 621.294 596.764V601.5H619.982ZM633.374 601.644C632.585 601.644 631.897 601.473 631.31 601.132C630.734 600.791 630.286 600.305 629.966 599.676C629.657 599.047 629.502 598.3 629.502 597.436C629.502 596.561 629.662 595.82 629.982 595.212C630.302 594.593 630.75 594.124 631.326 593.804C631.913 593.484 632.596 593.324 633.374 593.324C633.886 593.324 634.382 593.415 634.862 593.596C635.353 593.777 635.758 594.033 636.078 594.364L635.614 595.292C635.294 594.983 634.942 594.753 634.558 594.604C634.185 594.455 633.817 594.38 633.454 594.38C632.622 594.38 631.977 594.641 631.518 595.164C631.06 595.687 630.83 596.449 630.83 597.452C630.83 598.444 631.06 599.212 631.518 599.756C631.977 600.3 632.622 600.572 633.454 600.572C633.806 600.572 634.169 600.503 634.542 600.364C634.926 600.225 635.284 599.996 635.614 599.676L636.078 600.588C635.748 600.929 635.337 601.191 634.846 601.372C634.356 601.553 633.865 601.644 633.374 601.644ZM641.06 601.644C640.292 601.644 639.62 601.479 639.044 601.148C638.479 600.807 638.041 600.327 637.732 599.708C637.423 599.079 637.268 598.337 637.268 597.484C637.268 596.62 637.423 595.879 637.732 595.26C638.041 594.641 638.479 594.167 639.044 593.836C639.62 593.495 640.292 593.324 641.06 593.324C641.839 593.324 642.511 593.495 643.076 593.836C643.652 594.167 644.095 594.641 644.404 595.26C644.724 595.879 644.884 596.62 644.884 597.484C644.884 598.337 644.724 599.079 644.404 599.708C644.095 600.327 643.652 600.807 643.076 601.148C642.511 601.479 641.839 601.644 641.06 601.644ZM641.06 600.588C641.828 600.588 642.436 600.327 642.884 599.804C643.332 599.271 643.556 598.497 643.556 597.484C643.556 596.46 643.327 595.687 642.868 595.164C642.42 594.631 641.817 594.364 641.06 594.364C640.303 594.364 639.7 594.631 639.252 595.164C638.804 595.687 638.58 596.46 638.58 597.484C638.58 598.497 638.804 599.271 639.252 599.804C639.7 600.327 640.303 600.588 641.06 600.588ZM646.905 601.5V595.324C646.905 595.025 646.889 594.721 646.857 594.412C646.835 594.092 646.809 593.777 646.777 593.468H648.025L648.185 595.228H647.993C648.227 594.609 648.601 594.14 649.113 593.82C649.635 593.489 650.238 593.324 650.921 593.324C651.87 593.324 652.585 593.58 653.065 594.092C653.555 594.593 653.801 595.388 653.801 596.476V601.5H652.505V596.556C652.505 595.799 652.35 595.249 652.041 594.908C651.742 594.556 651.273 594.38 650.633 594.38C649.886 594.38 649.294 594.609 648.857 595.068C648.419 595.527 648.201 596.14 648.201 596.908V601.5H646.905ZM656.696 601.5V594.476H655.128V593.468H657.048L656.696 593.804V592.46C656.696 591.553 656.925 590.86 657.384 590.38C657.842 589.9 658.498 589.66 659.352 589.66C659.565 589.66 659.784 589.681 660.008 589.724C660.242 589.756 660.434 589.804 660.584 589.868V590.94C660.456 590.887 660.296 590.844 660.104 590.812C659.922 590.769 659.736 590.748 659.544 590.748C659.213 590.748 658.93 590.817 658.696 590.956C658.461 591.084 658.285 591.281 658.168 591.548C658.05 591.815 657.992 592.156 657.992 592.572V593.74L657.784 593.468H660.232V594.476H657.992V601.5H656.696ZM661.686 601.5V593.468H662.982V601.5H661.686ZM661.526 591.644V590.188H663.126V591.644H661.526ZM665.466 601.5V595.404C665.466 595.084 665.456 594.759 665.434 594.428C665.424 594.097 665.402 593.777 665.37 593.468H666.618L666.778 595.42L666.554 595.436C666.661 594.956 666.848 594.561 667.114 594.252C667.381 593.943 667.696 593.713 668.058 593.564C668.421 593.404 668.8 593.324 669.194 593.324C669.354 593.324 669.493 593.329 669.61 593.34C669.738 593.351 669.856 593.377 669.962 593.42L669.946 594.572C669.786 594.519 669.637 594.487 669.498 594.476C669.37 594.455 669.221 594.444 669.05 594.444C668.581 594.444 668.17 594.556 667.818 594.78C667.477 595.004 667.216 595.292 667.034 595.644C666.864 595.996 666.778 596.369 666.778 596.764V601.5H665.466ZM671.311 601.5V595.324C671.311 595.025 671.295 594.721 671.263 594.412C671.242 594.092 671.215 593.777 671.183 593.468H672.431L672.591 595.228H672.399C672.612 594.62 672.948 594.151 673.407 593.82C673.876 593.489 674.442 593.324 675.103 593.324C675.775 593.324 676.319 593.484 676.735 593.804C677.162 594.124 677.45 594.62 677.599 595.292H677.359C677.562 594.684 677.919 594.204 678.431 593.852C678.943 593.5 679.54 593.324 680.223 593.324C681.108 593.324 681.775 593.58 682.223 594.092C682.671 594.593 682.895 595.388 682.895 596.476V601.5H681.599V596.556C681.599 595.799 681.466 595.249 681.199 594.908C680.932 594.556 680.506 594.38 679.919 594.38C679.247 594.38 678.714 594.615 678.319 595.084C677.935 595.543 677.743 596.161 677.743 596.94V601.5H676.447V596.556C676.447 595.799 676.314 595.249 676.047 594.908C675.78 594.556 675.354 594.38 674.767 594.38C674.095 594.38 673.567 594.615 673.183 595.084C672.799 595.543 672.607 596.161 672.607 596.94V601.5H671.311ZM689.53 604.956V595.324C689.53 595.025 689.514 594.721 689.482 594.412C689.46 594.092 689.434 593.777 689.402 593.468H690.65L690.826 595.372H690.634C690.804 594.743 691.151 594.247 691.674 593.884C692.196 593.511 692.82 593.324 693.546 593.324C694.271 593.324 694.895 593.489 695.418 593.82C695.951 594.151 696.367 594.625 696.666 595.244C696.964 595.863 697.114 596.609 697.114 597.484C697.114 598.348 696.964 599.089 696.666 599.708C696.378 600.327 695.967 600.807 695.434 601.148C694.9 601.479 694.271 601.644 693.546 601.644C692.831 601.644 692.212 601.463 691.69 601.1C691.167 600.737 690.82 600.241 690.65 599.612H690.826V604.956H689.53ZM693.29 600.588C694.058 600.588 694.666 600.327 695.114 599.804C695.572 599.271 695.802 598.497 695.802 597.484C695.802 596.46 695.572 595.687 695.114 595.164C694.666 594.631 694.058 594.364 693.29 594.364C692.532 594.364 691.924 594.631 691.466 595.164C691.018 595.687 690.794 596.46 690.794 597.484C690.794 598.497 691.018 599.271 691.466 599.804C691.924 600.327 692.532 600.588 693.29 600.588ZM702.179 601.644C701.465 601.644 700.841 601.479 700.307 601.148C699.774 600.807 699.358 600.327 699.059 599.708C698.771 599.089 698.627 598.348 698.627 597.484C698.627 596.609 698.771 595.863 699.059 595.244C699.358 594.625 699.774 594.151 700.307 593.82C700.841 593.489 701.465 593.324 702.179 593.324C702.905 593.324 703.529 593.511 704.051 593.884C704.585 594.247 704.937 594.743 705.107 595.372H704.915L705.091 593.468H706.339C706.307 593.777 706.275 594.092 706.243 594.412C706.222 594.721 706.211 595.025 706.211 595.324V601.5H704.915V599.612H705.091C704.921 600.241 704.569 600.737 704.035 601.1C703.502 601.463 702.883 601.644 702.179 601.644ZM702.435 600.588C703.203 600.588 703.811 600.327 704.259 599.804C704.707 599.271 704.931 598.497 704.931 597.484C704.931 596.46 704.707 595.687 704.259 595.164C703.811 594.631 703.203 594.364 702.435 594.364C701.678 594.364 701.07 594.631 700.611 595.164C700.163 595.687 699.939 596.46 699.939 597.484C699.939 598.497 700.163 599.271 700.611 599.804C701.07 600.327 701.678 600.588 702.435 600.588ZM711.389 601.644C710.749 601.644 710.152 601.559 709.597 601.388C709.042 601.207 708.584 600.956 708.221 600.636L708.669 599.724C709.064 600.033 709.49 600.263 709.949 600.412C710.418 600.561 710.904 600.636 711.405 600.636C712.045 600.636 712.525 600.524 712.845 600.3C713.176 600.065 713.341 599.745 713.341 599.34C713.341 599.031 713.234 598.785 713.021 598.604C712.818 598.412 712.482 598.263 712.013 598.156L710.525 597.852C709.842 597.703 709.33 597.452 708.989 597.1C708.648 596.737 708.477 596.279 708.477 595.724C708.477 595.255 708.6 594.844 708.845 594.492C709.09 594.129 709.448 593.847 709.917 593.644C710.386 593.431 710.936 593.324 711.565 593.324C712.152 593.324 712.69 593.415 713.181 593.596C713.682 593.767 714.098 594.017 714.429 594.348L713.965 595.244C713.645 594.935 713.277 594.705 712.861 594.556C712.456 594.396 712.034 594.316 711.597 594.316C710.968 594.316 710.493 594.444 710.173 594.7C709.864 594.945 709.709 595.271 709.709 595.676C709.709 595.985 709.805 596.241 709.997 596.444C710.2 596.636 710.509 596.78 710.925 596.876L712.413 597.18C713.138 597.34 713.677 597.591 714.029 597.932C714.392 598.263 714.573 598.711 714.573 599.276C714.573 599.756 714.44 600.177 714.173 600.54C713.906 600.892 713.533 601.164 713.053 601.356C712.584 601.548 712.029 601.644 711.389 601.644ZM719.327 601.644C718.687 601.644 718.089 601.559 717.535 601.388C716.98 601.207 716.521 600.956 716.159 600.636L716.607 599.724C717.001 600.033 717.428 600.263 717.887 600.412C718.356 600.561 718.841 600.636 719.343 600.636C719.983 600.636 720.463 600.524 720.783 600.3C721.113 600.065 721.279 599.745 721.279 599.34C721.279 599.031 721.172 598.785 720.959 598.604C720.756 598.412 720.42 598.263 719.951 598.156L718.463 597.852C717.78 597.703 717.268 597.452 716.927 597.1C716.585 596.737 716.415 596.279 716.415 595.724C716.415 595.255 716.537 594.844 716.783 594.492C717.028 594.129 717.385 593.847 717.855 593.644C718.324 593.431 718.873 593.324 719.503 593.324C720.089 593.324 720.628 593.415 721.119 593.596C721.62 593.767 722.036 594.017 722.367 594.348L721.903 595.244C721.583 594.935 721.215 594.705 720.799 594.556C720.393 594.396 719.972 594.316 719.535 594.316C718.905 594.316 718.431 594.444 718.111 594.7C717.801 594.945 717.647 595.271 717.647 595.676C717.647 595.985 717.743 596.241 717.935 596.444C718.137 596.636 718.447 596.78 718.863 596.876L720.351 597.18C721.076 597.34 721.615 597.591 721.967 597.932C722.329 598.263 722.511 598.711 722.511 599.276C722.511 599.756 722.377 600.177 722.111 600.54C721.844 600.892 721.471 601.164 720.991 601.356C720.521 601.548 719.967 601.644 719.327 601.644ZM726.58 601.5L723.604 593.468H724.98L727.46 600.54H727.044L729.604 593.468H730.724L733.236 600.54H732.836L735.332 593.468H736.644L733.652 601.5H732.404L729.812 594.316H730.452L727.844 601.5H726.58ZM741.529 601.644C740.761 601.644 740.089 601.479 739.513 601.148C738.947 600.807 738.51 600.327 738.201 599.708C737.891 599.079 737.737 598.337 737.737 597.484C737.737 596.62 737.891 595.879 738.201 595.26C738.51 594.641 738.947 594.167 739.513 593.836C740.089 593.495 740.761 593.324 741.529 593.324C742.307 593.324 742.979 593.495 743.545 593.836C744.121 594.167 744.563 594.641 744.873 595.26C745.193 595.879 745.353 596.62 745.353 597.484C745.353 598.337 745.193 599.079 744.873 599.708C744.563 600.327 744.121 600.807 743.545 601.148C742.979 601.479 742.307 601.644 741.529 601.644ZM741.529 600.588C742.297 600.588 742.905 600.327 743.353 599.804C743.801 599.271 744.025 598.497 744.025 597.484C744.025 596.46 743.795 595.687 743.337 595.164C742.889 594.631 742.286 594.364 741.529 594.364C740.771 594.364 740.169 594.631 739.721 595.164C739.273 595.687 739.049 596.46 739.049 597.484C739.049 598.497 739.273 599.271 739.721 599.804C740.169 600.327 740.771 600.588 741.529 600.588ZM747.341 601.5V595.404C747.341 595.084 747.331 594.759 747.309 594.428C747.299 594.097 747.277 593.777 747.245 593.468H748.493L748.653 595.42L748.429 595.436C748.536 594.956 748.723 594.561 748.989 594.252C749.256 593.943 749.571 593.713 749.933 593.564C750.296 593.404 750.675 593.324 751.069 593.324C751.229 593.324 751.368 593.329 751.485 593.34C751.613 593.351 751.731 593.377 751.837 593.42L751.821 594.572C751.661 594.519 751.512 594.487 751.373 594.476C751.245 594.455 751.096 594.444 750.925 594.444C750.456 594.444 750.045 594.556 749.693 594.78C749.352 595.004 749.091 595.292 748.909 595.644C748.739 595.996 748.653 596.369 748.653 596.764V601.5H747.341ZM756.132 601.644C755.428 601.644 754.809 601.479 754.276 601.148C753.743 600.807 753.327 600.327 753.028 599.708C752.74 599.089 752.596 598.348 752.596 597.484C752.596 596.609 752.74 595.863 753.028 595.244C753.327 594.625 753.743 594.151 754.276 593.82C754.809 593.489 755.428 593.324 756.132 593.324C756.857 593.324 757.481 593.505 758.004 593.868C758.537 594.231 758.895 594.721 759.076 595.34H758.884V589.724H760.18V601.5H758.9V599.58H759.076C758.905 600.22 758.553 600.727 758.02 601.1C757.487 601.463 756.857 601.644 756.132 601.644ZM756.404 600.588C757.161 600.588 757.769 600.327 758.228 599.804C758.687 599.271 758.916 598.497 758.916 597.484C758.916 596.46 758.687 595.687 758.228 595.164C757.769 594.631 757.161 594.364 756.404 594.364C755.647 594.364 755.039 594.631 754.58 595.164C754.132 595.687 753.908 596.46 753.908 597.484C753.908 598.497 754.132 599.271 754.58 599.804C755.039 600.327 755.647 600.588 756.404 600.588Z" fill="#151515"/>
<rect x="533" y="654.5" width="374" height="40" rx="4" fill="#6200EE"/>
<path d="M698.604 680.644C697.697 680.644 696.881 680.527 696.156 680.292C695.431 680.057 694.801 679.727 694.268 679.3L694.78 678.116C695.153 678.393 695.532 678.628 695.916 678.82C696.3 679.001 696.711 679.14 697.148 679.236C697.596 679.321 698.081 679.364 698.604 679.364C699.532 679.364 700.215 679.199 700.652 678.868C701.1 678.527 701.324 678.079 701.324 677.524C701.324 677.044 701.169 676.676 700.86 676.42C700.551 676.164 700.012 675.961 699.244 675.812L697.532 675.46C696.497 675.247 695.724 674.9 695.212 674.42C694.711 673.929 694.46 673.268 694.46 672.436C694.46 671.764 694.636 671.177 694.988 670.676C695.351 670.164 695.847 669.769 696.476 669.492C697.116 669.215 697.863 669.076 698.716 669.076C699.505 669.076 700.236 669.193 700.908 669.428C701.58 669.663 702.145 670.009 702.604 670.468L702.092 671.604C701.612 671.167 701.095 670.852 700.54 670.66C699.996 670.457 699.377 670.356 698.684 670.356C697.841 670.356 697.175 670.537 696.684 670.9C696.193 671.263 695.948 671.753 695.948 672.372C695.948 672.863 696.103 673.252 696.412 673.54C696.721 673.817 697.233 674.031 697.948 674.18L699.66 674.516C700.748 674.729 701.543 675.065 702.044 675.524C702.556 675.983 702.812 676.617 702.812 677.428C702.812 678.068 702.641 678.633 702.3 679.124C701.959 679.604 701.473 679.977 700.844 680.244C700.215 680.511 699.468 680.644 698.604 680.644ZM707.627 680.644C706.656 680.644 705.926 680.383 705.435 679.86C704.955 679.337 704.715 678.532 704.715 677.444V672.452H706.171V677.412C706.171 678.116 706.315 678.633 706.603 678.964C706.891 679.295 707.339 679.46 707.947 679.46C708.608 679.46 709.142 679.241 709.547 678.804C709.963 678.356 710.171 677.764 710.171 677.028V672.452H711.627V680.5H710.219V678.724H710.427C710.203 679.332 709.846 679.807 709.355 680.148C708.864 680.479 708.288 680.644 707.627 680.644ZM718.251 680.644C717.537 680.644 716.918 680.468 716.395 680.116C715.873 679.753 715.526 679.257 715.355 678.628H715.531V680.5H714.075V668.724H715.531V674.292H715.355C715.537 673.673 715.883 673.188 716.395 672.836C716.918 672.484 717.537 672.308 718.251 672.308C718.966 672.308 719.59 672.479 720.123 672.82C720.657 673.151 721.067 673.625 721.355 674.244C721.654 674.863 721.803 675.609 721.803 676.484C721.803 677.348 721.654 678.095 721.355 678.724C721.067 679.343 720.651 679.817 720.107 680.148C719.574 680.479 718.955 680.644 718.251 680.644ZM717.915 679.492C718.641 679.492 719.222 679.241 719.659 678.74C720.107 678.228 720.331 677.476 720.331 676.484C720.331 675.492 720.107 674.745 719.659 674.244C719.222 673.732 718.641 673.476 717.915 673.476C717.179 673.476 716.593 673.727 716.155 674.228C715.729 674.729 715.515 675.476 715.515 676.468C715.515 677.46 715.729 678.212 716.155 678.724C716.593 679.236 717.179 679.492 717.915 679.492ZM723.763 680.5V674.356C723.763 674.047 723.752 673.732 723.731 673.412C723.71 673.092 723.678 672.772 723.635 672.452H725.043L725.203 674.18H725.011C725.224 673.583 725.566 673.124 726.035 672.804C726.504 672.473 727.064 672.308 727.715 672.308C728.376 672.308 728.92 672.468 729.347 672.788C729.774 673.097 730.062 673.588 730.211 674.26H729.971C730.174 673.663 730.531 673.188 731.043 672.836C731.555 672.484 732.152 672.308 732.835 672.308C733.72 672.308 734.387 672.569 734.835 673.092C735.283 673.604 735.507 674.404 735.507 675.492V680.5H734.051V675.572C734.051 674.836 733.923 674.308 733.667 673.988C733.411 673.657 733.006 673.492 732.451 673.492C731.8 673.492 731.288 673.716 730.915 674.164C730.542 674.601 730.355 675.199 730.355 675.956V680.5H728.899V675.572C728.899 674.836 728.771 674.308 728.515 673.988C728.27 673.657 727.864 673.492 727.299 673.492C726.648 673.492 726.136 673.716 725.763 674.164C725.4 674.601 725.219 675.199 725.219 675.956V680.5H723.763ZM737.888 680.5V672.452H739.344V680.5H737.888ZM737.76 670.692V669.124H739.488V670.692H737.76ZM744.786 680.644C743.944 680.644 743.304 680.415 742.867 679.956C742.44 679.487 742.227 678.783 742.227 677.844V673.572H740.659V672.452H742.227V670.292L743.683 669.892V672.452H745.955V673.572H743.683V677.716C743.683 678.335 743.789 678.777 744.003 679.044C744.227 679.3 744.547 679.428 744.963 679.428C745.176 679.428 745.357 679.412 745.507 679.38C745.667 679.337 745.811 679.289 745.939 679.236V680.436C745.779 680.5 745.592 680.548 745.379 680.58C745.176 680.623 744.979 680.644 744.786 680.644Z" fill="#FEFEFE"/>
<path d="M616.834 720.5L621.132 710.63H621.916L626.284 720.5H625.374L624.142 717.658L624.548 717.868H618.472L618.948 717.658L617.744 720.5H616.834ZM621.51 711.68L619.116 717.294L618.794 717.126H624.226L623.988 717.294L621.538 711.68H621.51ZM627.817 720.5V710.196H628.671V720.5H627.817ZM630.989 720.5V715.124C630.989 714.853 630.979 714.583 630.961 714.312C630.951 714.032 630.928 713.757 630.891 713.486H631.731L631.843 715.096L631.675 715.11C631.768 714.718 631.936 714.396 632.179 714.144C632.421 713.883 632.701 713.687 633.019 713.556C633.336 713.425 633.663 713.36 633.999 713.36C634.12 713.36 634.232 713.369 634.335 713.388C634.447 713.397 634.549 713.416 634.643 713.444L634.615 714.214C634.503 714.177 634.391 714.153 634.279 714.144C634.167 714.135 634.045 714.13 633.915 714.13C633.495 714.13 633.126 714.233 632.809 714.438C632.501 714.643 632.263 714.905 632.095 715.222C631.927 715.539 631.843 715.861 631.843 716.188V720.5H630.989ZM638.812 720.612C637.748 720.612 636.903 720.295 636.278 719.66C635.662 719.025 635.354 718.143 635.354 717.014C635.354 716.267 635.489 715.623 635.76 715.082C636.04 714.541 636.427 714.121 636.922 713.822C637.416 713.514 637.99 713.36 638.644 713.36C639.269 713.36 639.796 713.495 640.226 713.766C640.655 714.027 640.986 714.405 641.22 714.9C641.453 715.385 641.57 715.964 641.57 716.636V717.028H635.97V716.412H641.038L640.8 716.594C640.8 715.801 640.618 715.18 640.254 714.732C639.89 714.275 639.348 714.046 638.63 714.046C637.864 714.046 637.267 714.312 636.838 714.844C636.408 715.367 636.194 716.062 636.194 716.93V717.028C636.194 717.961 636.422 718.671 636.88 719.156C637.346 719.641 637.995 719.884 638.826 719.884C639.255 719.884 639.656 719.819 640.03 719.688C640.403 719.557 640.762 719.333 641.108 719.016L641.458 719.646C641.159 719.954 640.772 720.192 640.296 720.36C639.82 720.528 639.325 720.612 638.812 720.612ZM646.063 720.612C645.429 720.612 644.878 720.467 644.411 720.178C643.945 719.889 643.585 719.473 643.333 718.932C643.081 718.391 642.955 717.742 642.955 716.986C642.955 716.23 643.081 715.586 643.333 715.054C643.595 714.513 643.959 714.097 644.425 713.808C644.892 713.509 645.438 713.36 646.063 713.36C646.707 713.36 647.263 713.528 647.729 713.864C648.205 714.2 648.518 714.657 648.667 715.236H648.499L648.639 713.486H649.465C649.437 713.757 649.409 714.023 649.381 714.284C649.363 714.545 649.353 714.802 649.353 715.054V720.5H648.499V718.75H648.653C648.504 719.329 648.191 719.786 647.715 720.122C647.249 720.449 646.698 720.612 646.063 720.612ZM646.175 719.884C646.894 719.884 647.463 719.637 647.883 719.142C648.303 718.647 648.513 717.929 648.513 716.986C648.513 716.043 648.303 715.325 647.883 714.83C647.463 714.335 646.894 714.088 646.175 714.088C645.457 714.088 644.883 714.335 644.453 714.83C644.033 715.325 643.823 716.043 643.823 716.986C643.823 717.929 644.033 718.647 644.453 719.142C644.883 719.637 645.457 719.884 646.175 719.884ZM654.321 720.612C653.695 720.612 653.149 720.467 652.683 720.178C652.216 719.889 651.857 719.473 651.605 718.932C651.353 718.391 651.227 717.742 651.227 716.986C651.227 716.23 651.353 715.586 651.605 715.054C651.857 714.513 652.216 714.097 652.683 713.808C653.149 713.509 653.695 713.36 654.321 713.36C654.965 713.36 655.52 713.528 655.987 713.864C656.463 714.191 656.78 714.643 656.939 715.222H656.771V710.196H657.625V720.5H656.785V718.736H656.939C656.78 719.324 656.463 719.786 655.987 720.122C655.52 720.449 654.965 720.612 654.321 720.612ZM654.433 719.884C655.142 719.884 655.711 719.637 656.141 719.142C656.579 718.647 656.799 717.929 656.799 716.986C656.799 716.043 656.579 715.325 656.141 714.83C655.711 714.335 655.142 714.088 654.433 714.088C653.723 714.088 653.154 714.335 652.725 714.83C652.305 715.325 652.095 716.043 652.095 716.986C652.095 717.929 652.305 718.647 652.725 719.142C653.154 719.637 653.723 719.884 654.433 719.884ZM659.624 723.678L659.414 722.936C659.853 722.833 660.217 722.707 660.506 722.558C660.796 722.418 661.038 722.231 661.234 721.998C661.43 721.765 661.603 721.475 661.752 721.13L662.116 720.29L662.102 720.668L659.036 713.486H659.988L662.662 719.968H662.312L664.958 713.486H665.882L662.634 721.172C662.457 721.601 662.261 721.956 662.046 722.236C661.841 722.525 661.617 722.763 661.374 722.95C661.132 723.146 660.866 723.3 660.576 723.412C660.287 723.524 659.97 723.613 659.624 723.678ZM673.138 720.612C672.597 720.612 672.088 720.533 671.612 720.374C671.145 720.215 670.758 719.996 670.45 719.716L670.786 719.086C671.131 719.366 671.505 719.576 671.906 719.716C672.307 719.847 672.727 719.912 673.166 719.912C673.763 719.912 674.216 719.8 674.524 719.576C674.832 719.352 674.986 719.049 674.986 718.666C674.986 718.367 674.888 718.125 674.692 717.938C674.496 717.751 674.169 717.611 673.712 717.518L672.452 717.252C671.855 717.112 671.407 716.888 671.108 716.58C670.819 716.272 670.674 715.885 670.674 715.418C670.674 715.017 670.777 714.662 670.982 714.354C671.197 714.046 671.5 713.803 671.892 713.626C672.284 713.449 672.746 713.36 673.278 713.36C673.782 713.36 674.244 713.444 674.664 713.612C675.093 713.771 675.443 713.999 675.714 714.298L675.35 714.914C675.07 714.634 674.753 714.424 674.398 714.284C674.053 714.144 673.684 714.074 673.292 714.074C672.713 714.074 672.275 714.195 671.976 714.438C671.677 714.671 671.528 714.984 671.528 715.376C671.528 715.675 671.621 715.922 671.808 716.118C671.995 716.305 672.289 716.445 672.69 716.538L673.95 716.818C674.585 716.958 675.056 717.173 675.364 717.462C675.672 717.751 675.826 718.134 675.826 718.61C675.826 719.021 675.714 719.38 675.49 719.688C675.266 719.987 674.953 720.215 674.552 720.374C674.151 720.533 673.679 720.612 673.138 720.612ZM677.788 720.5V713.486H678.642V720.5H677.788ZM677.648 711.764V710.7H678.796V711.764H677.648ZM683.998 723.622C683.41 723.622 682.859 723.543 682.346 723.384C681.842 723.225 681.389 722.987 680.988 722.67L681.296 722.012C681.594 722.227 681.879 722.395 682.15 722.516C682.43 722.647 682.719 722.74 683.018 722.796C683.316 722.861 683.638 722.894 683.984 722.894C684.693 722.894 685.23 722.703 685.594 722.32C685.958 721.947 686.14 721.405 686.14 720.696V718.47H686.294C686.144 719.058 685.832 719.52 685.356 719.856C684.88 720.183 684.32 720.346 683.676 720.346C683.032 720.346 682.472 720.206 681.996 719.926C681.529 719.637 681.165 719.231 680.904 718.708C680.652 718.176 680.526 717.555 680.526 716.846C680.526 716.137 680.652 715.521 680.904 714.998C681.165 714.475 681.529 714.074 681.996 713.794C682.472 713.505 683.032 713.36 683.676 713.36C684.32 713.36 684.88 713.528 685.356 713.864C685.832 714.191 686.144 714.653 686.294 715.25L686.14 715.096L686.266 713.486H687.106C687.068 713.757 687.04 714.023 687.022 714.284C687.003 714.545 686.994 714.802 686.994 715.054V720.57C686.994 721.578 686.737 722.339 686.224 722.852C685.72 723.365 684.978 723.622 683.998 723.622ZM683.774 719.618C684.502 719.618 685.076 719.375 685.496 718.89C685.925 718.405 686.14 717.723 686.14 716.846C686.14 715.978 685.925 715.301 685.496 714.816C685.076 714.331 684.502 714.088 683.774 714.088C683.046 714.088 682.467 714.331 682.038 714.816C681.608 715.301 681.394 715.978 681.394 716.846C681.394 717.723 681.608 718.405 682.038 718.89C682.467 719.375 683.046 719.618 683.774 719.618ZM689.3 720.5V715.054C689.3 714.802 689.29 714.545 689.272 714.284C689.253 714.023 689.225 713.757 689.188 713.486H690.028L690.154 715.096H689.986C690.191 714.536 690.522 714.107 690.98 713.808C691.437 713.509 691.969 713.36 692.576 713.36C693.406 713.36 694.032 713.579 694.452 714.018C694.881 714.457 695.096 715.143 695.096 716.076V720.5H694.242V716.146C694.242 715.427 694.097 714.909 693.808 714.592C693.518 714.265 693.07 714.102 692.464 714.102C691.754 714.102 691.19 714.317 690.77 714.746C690.359 715.175 690.154 715.754 690.154 716.482V720.5H689.3ZM700.403 720.612C699.339 720.612 698.495 720.295 697.869 719.66C697.253 719.025 696.945 718.143 696.945 717.014C696.945 716.267 697.081 715.623 697.351 715.082C697.631 714.541 698.019 714.121 698.513 713.822C699.008 713.514 699.582 713.36 700.235 713.36C700.861 713.36 701.388 713.495 701.817 713.766C702.247 714.027 702.578 714.405 702.811 714.9C703.045 715.385 703.161 715.964 703.161 716.636V717.028H697.561V716.412H702.629L702.391 716.594C702.391 715.801 702.209 715.18 701.845 714.732C701.481 714.275 700.94 714.046 700.221 714.046C699.456 714.046 698.859 714.312 698.429 714.844C698 715.367 697.785 716.062 697.785 716.93V717.028C697.785 717.961 698.014 718.671 698.471 719.156C698.938 719.641 699.587 719.884 700.417 719.884C700.847 719.884 701.248 719.819 701.621 719.688C701.995 719.557 702.354 719.333 702.699 719.016L703.049 719.646C702.751 719.954 702.363 720.192 701.887 720.36C701.411 720.528 700.917 720.612 700.403 720.612ZM707.641 720.612C707.016 720.612 706.47 720.467 706.003 720.178C705.536 719.889 705.177 719.473 704.925 718.932C704.673 718.391 704.547 717.742 704.547 716.986C704.547 716.23 704.673 715.586 704.925 715.054C705.177 714.513 705.536 714.097 706.003 713.808C706.47 713.509 707.016 713.36 707.641 713.36C708.285 713.36 708.84 713.528 709.307 713.864C709.783 714.191 710.1 714.643 710.259 715.222H710.091V710.196H710.945V720.5H710.105V718.736H710.259C710.1 719.324 709.783 719.786 709.307 720.122C708.84 720.449 708.285 720.612 707.641 720.612ZM707.753 719.884C708.462 719.884 709.032 719.637 709.461 719.142C709.9 718.647 710.119 717.929 710.119 716.986C710.119 716.043 709.9 715.325 709.461 714.83C709.032 714.335 708.462 714.088 707.753 714.088C707.044 714.088 706.474 714.335 706.045 714.83C705.625 715.325 705.415 716.043 705.415 716.986C705.415 717.929 705.625 718.647 706.045 719.142C706.474 719.637 707.044 719.884 707.753 719.884ZM719.299 720.612C718.478 720.612 717.852 720.393 717.423 719.954C717.003 719.506 716.793 718.82 716.793 717.896V713.486H717.647V717.84C717.647 718.549 717.792 719.067 718.081 719.394C718.37 719.721 718.814 719.884 719.411 719.884C720.074 719.884 720.606 719.669 721.007 719.24C721.418 718.801 721.623 718.223 721.623 717.504V713.486H722.477V720.5H721.637V718.848H721.819C721.623 719.417 721.301 719.856 720.853 720.164C720.414 720.463 719.896 720.612 719.299 720.612ZM724.806 723.524V715.054C724.806 714.802 724.796 714.545 724.778 714.284C724.759 714.023 724.731 713.757 724.694 713.486H725.534L725.674 715.236H725.506C725.664 714.657 725.972 714.2 726.43 713.864C726.887 713.528 727.442 713.36 728.096 713.36C728.73 713.36 729.276 713.509 729.734 713.808C730.2 714.097 730.564 714.513 730.826 715.054C731.087 715.586 731.218 716.23 731.218 716.986C731.218 717.742 731.087 718.391 730.826 718.932C730.574 719.473 730.214 719.889 729.748 720.178C729.281 720.467 728.73 720.612 728.096 720.612C727.452 720.612 726.896 720.449 726.43 720.122C725.972 719.786 725.664 719.329 725.506 718.75H725.66V723.524H724.806ZM727.984 719.884C728.702 719.884 729.276 719.637 729.706 719.142C730.135 718.647 730.35 717.929 730.35 716.986C730.35 716.043 730.135 715.325 729.706 714.83C729.276 714.335 728.702 714.088 727.984 714.088C727.274 714.088 726.705 714.335 726.276 714.83C725.856 715.325 725.646 716.043 725.646 716.986C725.646 717.929 725.856 718.647 726.276 719.142C726.705 719.637 727.274 719.884 727.984 719.884ZM734.105 718.078V717.742C734.105 717.257 734.198 716.795 734.385 716.356C734.571 715.917 734.912 715.423 735.407 714.872C735.799 714.424 736.074 714.041 736.233 713.724C736.391 713.397 736.471 713.057 736.471 712.702C736.471 712.263 736.312 711.918 735.995 711.666C735.677 711.414 735.243 711.288 734.693 711.288C734.329 711.288 733.983 711.335 733.657 711.428C733.33 711.521 733.017 711.647 732.719 711.806V710.966C733.017 710.826 733.339 710.719 733.685 710.644C734.03 710.56 734.38 710.518 734.735 710.518C735.257 710.518 735.715 710.607 736.107 710.784C736.499 710.952 736.802 711.195 737.017 711.512C737.241 711.829 737.353 712.212 737.353 712.66C737.353 712.959 737.306 713.243 737.213 713.514C737.129 713.785 736.989 714.065 736.793 714.354C736.597 714.634 736.34 714.947 736.023 715.292C735.565 715.796 735.239 716.235 735.043 716.608C734.856 716.972 734.744 717.355 734.707 717.756L734.665 718.078H734.105ZM733.783 720.5V719.296H734.973V720.5H733.783ZM821.406 720.5V719.296H822.596V720.5H821.406Z" fill="#333333"/>
<path d="M747.143 720.612C746.079 720.612 745.188 720.416 744.469 720.024C743.76 719.623 743.223 719.044 742.859 718.288C742.504 717.532 742.327 716.622 742.327 715.558C742.327 714.513 742.514 713.617 742.887 712.87C743.26 712.114 743.792 711.535 744.483 711.134C745.183 710.723 746.023 710.518 747.003 710.518C747.722 710.518 748.342 710.63 748.865 710.854C749.388 711.069 749.864 711.386 750.293 711.806L749.915 712.506C749.607 712.217 749.308 711.988 749.019 711.82C748.739 711.643 748.436 711.517 748.109 711.442C747.792 711.358 747.423 711.316 747.003 711.316C745.799 711.316 744.87 711.689 744.217 712.436C743.573 713.173 743.251 714.219 743.251 715.572C743.251 716.953 743.568 718.008 744.203 718.736C744.838 719.464 745.822 719.828 747.157 719.828C747.652 719.828 748.123 719.781 748.571 719.688C749.019 719.595 749.444 719.459 749.845 719.282L749.635 719.842V716.146H747.017V715.418H750.405V719.926C750.032 720.122 749.542 720.285 748.935 720.416C748.338 720.547 747.74 720.612 747.143 720.612ZM755.523 720.612C754.86 720.612 754.286 720.467 753.801 720.178C753.325 719.889 752.956 719.473 752.695 718.932C752.434 718.391 752.303 717.742 752.303 716.986C752.303 716.239 752.434 715.595 752.695 715.054C752.956 714.513 753.325 714.097 753.801 713.808C754.286 713.509 754.86 713.36 755.523 713.36C756.176 713.36 756.741 713.509 757.217 713.808C757.702 714.097 758.076 714.513 758.337 715.054C758.608 715.595 758.743 716.239 758.743 716.986C758.743 717.742 758.608 718.391 758.337 718.932C758.076 719.473 757.702 719.889 757.217 720.178C756.741 720.467 756.176 720.612 755.523 720.612ZM755.523 719.884C756.232 719.884 756.802 719.637 757.231 719.142C757.66 718.647 757.875 717.929 757.875 716.986C757.875 716.043 757.66 715.325 757.231 714.83C756.802 714.335 756.232 714.088 755.523 714.088C754.804 714.088 754.23 714.335 753.801 714.83C753.381 715.325 753.171 716.043 753.171 716.986C753.171 717.929 753.381 718.647 753.801 719.142C754.23 719.637 754.804 719.884 755.523 719.884ZM766.449 720.612C765.823 720.612 765.343 720.425 765.007 720.052C764.68 719.679 764.517 719.105 764.517 718.33V714.172H763.117V713.486H764.517V711.526L765.371 711.246V713.486H767.443V714.172H765.371V718.204C765.371 718.792 765.464 719.217 765.651 719.478C765.837 719.739 766.136 719.87 766.547 719.87C766.733 719.87 766.897 719.851 767.037 719.814C767.186 719.777 767.312 719.735 767.415 719.688V720.444C767.303 720.491 767.158 720.528 766.981 720.556C766.803 720.593 766.626 720.612 766.449 720.612ZM771.601 720.612C770.938 720.612 770.364 720.467 769.879 720.178C769.403 719.889 769.034 719.473 768.773 718.932C768.512 718.391 768.381 717.742 768.381 716.986C768.381 716.239 768.512 715.595 768.773 715.054C769.034 714.513 769.403 714.097 769.879 713.808C770.364 713.509 770.938 713.36 771.601 713.36C772.254 713.36 772.819 713.509 773.295 713.808C773.78 714.097 774.154 714.513 774.415 715.054C774.686 715.595 774.821 716.239 774.821 716.986C774.821 717.742 774.686 718.391 774.415 718.932C774.154 719.473 773.78 719.889 773.295 720.178C772.819 720.467 772.254 720.612 771.601 720.612ZM771.601 719.884C772.31 719.884 772.88 719.637 773.309 719.142C773.738 718.647 773.953 717.929 773.953 716.986C773.953 716.043 773.738 715.325 773.309 714.83C772.88 714.335 772.31 714.088 771.601 714.088C770.882 714.088 770.308 714.335 769.879 714.83C769.459 715.325 769.249 716.043 769.249 716.986C769.249 717.929 769.459 718.647 769.879 719.142C770.308 719.637 770.882 719.884 771.601 719.884ZM782.527 720.612C781.985 720.612 781.477 720.533 781.001 720.374C780.534 720.215 780.147 719.996 779.839 719.716L780.175 719.086C780.52 719.366 780.893 719.576 781.295 719.716C781.696 719.847 782.116 719.912 782.555 719.912C783.152 719.912 783.605 719.8 783.913 719.576C784.221 719.352 784.375 719.049 784.375 718.666C784.375 718.367 784.277 718.125 784.081 717.938C783.885 717.751 783.558 717.611 783.101 717.518L781.841 717.252C781.243 717.112 780.795 716.888 780.497 716.58C780.207 716.272 780.063 715.885 780.063 715.418C780.063 715.017 780.165 714.662 780.371 714.354C780.585 714.046 780.889 713.803 781.281 713.626C781.673 713.449 782.135 713.36 782.667 713.36C783.171 713.36 783.633 713.444 784.053 713.612C784.482 713.771 784.832 713.999 785.103 714.298L784.739 714.914C784.459 714.634 784.141 714.424 783.787 714.284C783.441 714.144 783.073 714.074 782.681 714.074C782.102 714.074 781.663 714.195 781.365 714.438C781.066 714.671 780.917 714.984 780.917 715.376C780.917 715.675 781.01 715.922 781.197 716.118C781.383 716.305 781.677 716.445 782.079 716.538L783.339 716.818C783.973 716.958 784.445 717.173 784.753 717.462C785.061 717.751 785.215 718.134 785.215 718.61C785.215 719.021 785.103 719.38 784.879 719.688C784.655 719.987 784.342 720.215 783.941 720.374C783.539 720.533 783.068 720.612 782.527 720.612ZM787.177 720.5V713.486H788.031V720.5H787.177ZM787.037 711.764V710.7H788.185V711.764H787.037ZM793.386 723.622C792.798 723.622 792.248 723.543 791.734 723.384C791.23 723.225 790.778 722.987 790.376 722.67L790.684 722.012C790.983 722.227 791.268 722.395 791.538 722.516C791.818 722.647 792.108 722.74 792.406 722.796C792.705 722.861 793.027 722.894 793.372 722.894C794.082 722.894 794.618 722.703 794.982 722.32C795.346 721.947 795.528 721.405 795.528 720.696V718.47H795.682C795.533 719.058 795.22 719.52 794.744 719.856C794.268 720.183 793.708 720.346 793.064 720.346C792.42 720.346 791.86 720.206 791.384 719.926C790.918 719.637 790.554 719.231 790.292 718.708C790.04 718.176 789.914 717.555 789.914 716.846C789.914 716.137 790.04 715.521 790.292 714.998C790.554 714.475 790.918 714.074 791.384 713.794C791.86 713.505 792.42 713.36 793.064 713.36C793.708 713.36 794.268 713.528 794.744 713.864C795.22 714.191 795.533 714.653 795.682 715.25L795.528 715.096L795.654 713.486H796.494C796.457 713.757 796.429 714.023 796.41 714.284C796.392 714.545 796.382 714.802 796.382 715.054V720.57C796.382 721.578 796.126 722.339 795.612 722.852C795.108 723.365 794.366 723.622 793.386 723.622ZM793.162 719.618C793.89 719.618 794.464 719.375 794.884 718.89C795.314 718.405 795.528 717.723 795.528 716.846C795.528 715.978 795.314 715.301 794.884 714.816C794.464 714.331 793.89 714.088 793.162 714.088C792.434 714.088 791.856 714.331 791.426 714.816C790.997 715.301 790.782 715.978 790.782 716.846C790.782 717.723 790.997 718.405 791.426 718.89C791.856 719.375 792.434 719.618 793.162 719.618ZM798.688 720.5V715.054C798.688 714.802 798.679 714.545 798.66 714.284C798.642 714.023 798.614 713.757 798.576 713.486H799.416L799.542 715.096H799.374C799.58 714.536 799.911 714.107 800.368 713.808C800.826 713.509 801.358 713.36 801.964 713.36C802.795 713.36 803.42 713.579 803.84 714.018C804.27 714.457 804.484 715.143 804.484 716.076V720.5H803.63V716.146C803.63 715.427 803.486 714.909 803.196 714.592C802.907 714.265 802.459 714.102 801.852 714.102C801.143 714.102 800.578 714.317 800.158 714.746C799.748 715.175 799.542 715.754 799.542 716.482V720.5H798.688ZM810.35 720.5V713.486H811.204V720.5H810.35ZM810.21 711.764V710.7H811.358V711.764H810.21ZM813.536 720.5V715.054C813.536 714.802 813.527 714.545 813.508 714.284C813.489 714.023 813.461 713.757 813.424 713.486H814.264L814.39 715.096H814.222C814.427 714.536 814.759 714.107 815.216 713.808C815.673 713.509 816.205 713.36 816.812 713.36C817.643 713.36 818.268 713.579 818.688 714.018C819.117 714.457 819.332 715.143 819.332 716.076V720.5H818.478V716.146C818.478 715.427 818.333 714.909 818.044 714.592C817.755 714.265 817.307 714.102 816.7 714.102C815.991 714.102 815.426 714.317 815.006 714.746C814.595 715.175 814.39 715.754 814.39 716.482V720.5H813.536Z" fill="#6200EE"/>
</g>
<defs>
<filter id="filter0_d_0_823" x="473" y="225.5" width="494" height="582" filterUnits="userSpaceOnUse" color-interpolation-filters="sRGB">
<feFlood flood-opacity="0" result="BackgroundImageFix"/>
<feColorMatrix in="SourceAlpha" type="matrix" values="0 0 0 0 0 0 0 0 0 0 0 0 0 0 0 0 0 0 127 0" result="hardAlpha"/>
<feOffset dy="4"/>
<feGaussianBlur stdDeviation="16"/>
<feComposite in2="hardAlpha" operator="out"/>
<feColorMatrix type="matrix" values="0 0 0 0 0.2 0 0 0 0 0.2 0 0 0 0 0.2 0 0 0 0.04 0"/>
<feBlend mode="normal" in2="BackgroundImageFix" result="effect1_dropShadow_0_823"/>
<feBlend mode="normal" in="SourceGraphic" in2="effect1_dropShadow_0_823" result="shape"/>
</filter>
<filter id="filter1_d_0_823" x="515" y="389.5" width="410" height="83" filterUnits="userSpaceOnUse" color-interpolation-filters="sRGB">
<feFlood flood-opacity="0" result="BackgroundImageFix"/>
<feColorMatrix in="SourceAlpha" type="matrix" values="0 0 0 0 0 0 0 0 0 0 0 0 0 0 0 0 0 0 127 0" result="hardAlpha"/>
<feOffset dy="4"/>
<feGaussianBlur stdDeviation="9"/>
<feComposite in2="hardAlpha" operator="out"/>
<feColorMatrix type="matrix" values="0 0 0 0 0.2 0 0 0 0 0.2 0 0 0 0 0.2 0 0 0 0.04 0"/>
<feBlend mode="normal" in2="BackgroundImageFix" result="effect1_dropShadow_0_823"/>
<feBlend mode="normal" in="SourceGraphic" in2="effect1_dropShadow_0_823" result="shape"/>
</filter>
<clipPath id="clip0_0_823">
<rect width="20" height="20" fill="white" transform="translate(871 501)"/>
</clipPath>
</defs>
</svg>
